<svg width="373" height="109" viewBox="0 0 373 109" fill="none" xmlns="http://www.w3.org/2000/svg">
<path d="M106.819 0.5H71.8793L31.1762 44.0259V0.5H0V108.5H31.1762V81.3966L41.8452 69.9914L72.3205 108.5H109L62.4823 48.3707L106.819 0.5Z" fill="#f4f4f4"/>
<path d="M148 0.5H117V108.5H148V0.5Z" fill="#f4f4f4"/>
<path d="M233.466 74.7026C239.806 71.5704 244.815 67.2637 248.39 61.8345C252.33 55.8573 254.339 48.6794 254.339 40.4835C254.339 32.1832 252.33 24.9009 248.39 18.8192C244.45 12.7375 238.788 8.03927 231.587 4.82878C224.412 1.6183 215.749 0 205.861 0H156V109H187.623V80.3405H203.408L222.951 109H256.739H256.843H257L256.843 108.765L233.466 74.7026ZM217.889 51.6027C214.888 54.2651 210.218 55.6224 204.008 55.6224H187.623V25.1619H204.008C210.192 25.1619 214.862 26.5192 217.889 29.1815C220.889 31.8439 222.403 35.6286 222.403 40.4574C222.403 45.2079 220.863 48.9665 217.889 51.6027Z" fill="#f4f4f4"/>
<path d="M372 108.5L333.07 23.1034L343.093 0.5H312.636L265.362 107.724L265.103 108.293L266.498 105.112L265 108.5H265.103H265.258H266.498H297.059L302.923 93.8879L314.78 64.3276L317.648 57.8621L339.347 108.5H372Z" fill="#f4f4f4"/>
</svg>
