<svg width="132" height="132" viewBox="0 0 132 132" fill="none" xmlns="http://www.w3.org/2000/svg">
<g filter="url(#filter0_d_4127_6967)">
<path d="M99.5627 50.4516C99.1487 49.1618 98.3867 46.8031 95.9483 45.5048C95.6984 44.3216 95.4309 43.0055 95.2284 42.011L95.2171 41.9663C94.5959 38.9281 94.3434 37.7138 94.1226 37.0037L93.0101 33.4607C93.4615 32.9459 93.8246 32.3531 94.0709 31.6945C95.0324 29.1137 93.9216 26.8797 93.3301 25.682C93.3077 25.6349 93.2865 25.5927 93.2654 25.5505C92.7975 23.9416 91.7389 22.6079 90.2972 21.8299C89.6261 21.4706 88.9042 21.2455 88.144 21.141C86.4757 18.9574 85.584 18.0147 84.1575 16.5623C83.8168 16.215 83.44 15.8292 82.996 15.3653C82.6241 14.9783 81.9216 14.3682 80.8915 13.9461C80.1959 12.9013 79.2806 11.9487 78.044 11.3145C76.6856 10.6159 75.1342 10.4304 73.6791 10.7962C73.555 10.8274 73.4371 10.8623 73.3142 10.8985C73.2993 10.9023 73.2844 10.906 73.2707 10.9147C72.9194 11.0295 72.3781 11.1867 71.8555 11.3339C70.4911 11.7244 68.9455 12.1711 67.7515 12.7142C64.9985 13.966 62.9419 14.9212 60.7636 15.9388C59.4592 16.5466 58.0505 17.2017 56.3389 17.9963C55.1325 18.5531 53.967 19.0626 52.8437 19.5509C50.8974 20.3993 49.0604 21.199 46.9952 22.2462L46.8587 22.3122C44.5019 23.5014 43.2162 24.2681 42.3553 25.0231C41.7882 25.3716 40.4281 26.136 39.6599 26.5667C37.7587 27.636 37.2921 27.9012 36.8144 28.2906C36.415 28.6127 36.0714 28.9895 35.7863 29.4097C35.327 29.5357 34.8677 29.6617 34.4083 29.7878C32.5697 30.287 30.6727 30.8062 28.746 31.4384C25.3819 32.5482 23.1773 35.2672 22.7027 38.903C22.479 40.6171 22.6526 42.3159 22.8831 43.8208C21.475 45.8855 21.3929 48.562 22.7299 50.9186C23.8427 52.867 25.8632 54.603 28.3015 54.9351C29.2242 56.7359 30.0837 58.6424 30.9157 60.503C31.6046 62.0458 32.3158 63.6357 33.0904 65.2256C33.3171 65.6861 33.5152 66.2012 33.7072 66.7338C33.5721 66.9736 33.4445 67.2222 33.3393 67.4968C32.4754 69.6887 33.1277 71.7582 33.5567 73.1287L34.4534 75.9815C36.2357 81.6634 38.9941 87.3429 42.8868 93.3338C42.9901 93.4926 43.1446 93.8339 43.2841 94.1368C43.7624 95.1781 44.7974 97.4259 47.1066 98.7355C48.7348 102.482 50.892 107.114 53.1028 110.951C56.1762 116.287 60.0481 121.586 65.439 120.41C68.1866 119.809 70.3075 119.551 72.7649 119.244C74.6548 119.012 76.8005 118.747 79.3098 118.291C80.1182 118.145 80.9438 117.964 81.7632 117.758C86.625 116.536 91.1428 114.407 94.994 112.505C95.7312 112.14 96.3692 111.863 96.9352 111.615C98.5053 110.93 100.118 110.224 102.355 108.495C105.799 105.834 107.119 100.333 103.625 80.619C105.009 78.1643 104.568 75.7146 104.329 74.3649C104.297 74.1774 104.254 73.9403 104.24 73.8434C103.905 66.6307 102.283 58.4373 99.6662 50.7793C99.6338 50.6713 99.6014 50.5633 99.5627 50.4516Z" fill="white"/>
</g>
<defs>
<filter id="filter0_d_4127_6967" x="13.7751" y="6.6123" width="99.905" height="125.963" filterUnits="userSpaceOnUse" color-interpolation-filters="sRGB">
<feFlood flood-opacity="0" result="BackgroundImageFix"/>
<feColorMatrix in="SourceAlpha" type="matrix" values="0 0 0 0 0 0 0 0 0 0 0 0 0 0 0 0 0 0 127 0" result="hardAlpha"/>
<feOffset dy="4"/>
<feGaussianBlur stdDeviation="4"/>
<feComposite in2="hardAlpha" operator="out"/>
<feColorMatrix type="matrix" values="0 0 0 0 0 0 0 0 0 0 0 0 0 0 0 0 0 0 0.25 0"/>
<feBlend mode="normal" in2="BackgroundImageFix" result="effect1_dropShadow_4127_6967"/>
<feBlend mode="normal" in="SourceGraphic" in2="effect1_dropShadow_4127_6967" result="shape"/>
</filter>
</defs>
</svg>
