<svg width="132" height="118" viewBox="0 0 132 118" fill="none" xmlns="http://www.w3.org/2000/svg">
<g filter="url(#filter0_d_4127_8847)">
<path d="M126.777 56.9856C126.777 26.9278 102.411 2.56116 72.3528 2.56116V2.56116C42.295 2.56116 17.9283 26.9278 17.9283 56.9857V56.9857C17.9283 87.0435 42.295 111.41 72.3528 111.41H126.777V56.9856Z" fill="#FFFF00"/>
</g>
<path d="M18.271 36.1165H24.7327L32.4704 55.1487H25.7644L21.3118 42.3882L16.6963 55.1487H10.2346L18.271 36.1165ZM15.6646 47.9539H26.5789V52.4608H15.6646V47.9539ZM42.0497 36.1165C43.6244 36.1165 45.0452 36.3428 46.3122 36.7953C47.5792 37.2297 48.6652 37.8632 49.5702 38.6958C50.4752 39.5284 51.1721 40.5329 51.6608 41.7094C52.1495 42.8678 52.3938 44.171 52.3938 45.619C52.3938 47.067 52.1404 48.3793 51.6336 49.5558C51.1449 50.7142 50.439 51.7187 49.5159 52.5694C48.5928 53.402 47.4797 54.0446 46.1765 54.4971C44.8733 54.9315 43.4162 55.1487 41.8053 55.1487H33.5517V36.1165H42.0497ZM42.2126 50.2617C42.7918 50.2617 43.3076 50.1531 43.7601 49.9359C44.2126 49.7187 44.6018 49.411 44.9276 49.0128C45.2715 48.6146 45.5249 48.1349 45.6878 47.5738C45.8688 47.0127 45.9593 46.3792 45.9593 45.6733C45.9593 44.9674 45.8597 44.3339 45.6606 43.7728C45.4796 43.1936 45.2081 42.6959 44.8461 42.2796C44.5022 41.8633 44.0769 41.5465 43.5701 41.3293C43.0814 41.1121 42.5293 41.0035 41.9139 41.0035H39.8505V50.2617H42.2126ZM62.6508 36.1165C64.2255 36.1165 65.6464 36.3428 66.9134 36.7953C68.1804 37.2297 69.2664 37.8632 70.1714 38.6958C71.0764 39.5284 71.7732 40.5329 72.2619 41.7094C72.7506 42.8678 72.995 44.171 72.995 45.619C72.995 47.067 72.7416 48.3793 72.2348 49.5558C71.7461 50.7142 71.0402 51.7187 70.1171 52.5694C69.194 53.402 68.0808 54.0446 66.7776 54.4971C65.4744 54.9315 64.0174 55.1487 62.4065 55.1487H54.1529V36.1165H62.6508ZM62.8137 50.2617C63.3929 50.2617 63.9088 50.1531 64.3613 49.9359C64.8138 49.7187 65.2029 49.411 65.5287 49.0128C65.8726 48.6146 66.126 48.1349 66.2889 47.5738C66.4699 47.0127 66.5604 46.3792 66.5604 45.6733C66.5604 44.9674 66.4609 44.3339 66.2618 43.7728C66.0808 43.1936 65.8093 42.6959 65.4473 42.2796C65.1034 41.8633 64.678 41.5465 64.1712 41.3293C63.6825 41.1121 63.1305 41.0035 62.5151 41.0035H60.4517V50.2617H62.8137ZM80.85 36.1165H97.9817V41.085H92.5517V55.1487H86.2529V41.085H80.85V36.1165ZM108.145 35.7093C109.666 35.7093 111.059 35.9536 112.326 36.4423C113.593 36.931 114.698 37.6188 115.639 38.5057C116.58 39.3926 117.304 40.4424 117.811 41.6551C118.336 42.8497 118.598 44.162 118.598 45.5919C118.598 47.0218 118.336 48.3521 117.811 49.5829C117.304 50.7956 116.58 51.8545 115.639 52.7595C114.698 53.6464 113.593 54.3432 112.326 54.85C111.059 55.3387 109.666 55.5831 108.145 55.5831C106.625 55.5831 105.231 55.3387 103.964 54.85C102.697 54.3432 101.593 53.6464 100.652 52.7595C99.7107 51.8545 98.9777 50.7956 98.4528 49.5829C97.946 48.3702 97.6926 47.0399 97.6926 45.5919C97.6926 44.1439 97.946 42.8226 98.4528 41.628C98.9777 40.4153 99.7107 39.3745 100.652 38.5057C101.593 37.6188 102.697 36.931 103.964 36.4423C105.231 35.9536 106.625 35.7093 108.145 35.7093ZM108.227 40.9492C107.684 40.9492 107.159 41.0669 106.652 41.3022C106.163 41.5194 105.729 41.8452 105.349 42.2796C104.987 42.6959 104.697 43.1846 104.48 43.7457C104.263 44.3068 104.154 44.9312 104.154 45.619C104.154 46.2887 104.263 46.9132 104.48 47.4924C104.697 48.0716 104.996 48.5784 105.376 49.0128C105.756 49.4291 106.191 49.7549 106.679 49.9902C107.168 50.2255 107.684 50.3431 108.227 50.3431C108.77 50.3431 109.277 50.2255 109.747 49.9902C110.218 49.7549 110.634 49.4291 110.996 49.0128C111.358 48.5784 111.639 48.0716 111.838 47.4924C112.037 46.9132 112.136 46.2887 112.136 45.619C112.136 44.9312 112.037 44.3068 111.838 43.7457C111.639 43.1846 111.358 42.6959 110.996 42.2796C110.634 41.8452 110.218 41.5194 109.747 41.3022C109.277 41.0669 108.77 40.9492 108.227 40.9492ZM68.0106 71.1165H74.4723L82.2101 90.1487H75.504L71.0514 77.3882L66.4359 90.1487H59.9742L68.0106 71.1165ZM65.4042 82.9539H76.3185V87.4608H65.4042V82.9539ZM92.4952 71.1165C95.0835 71.1165 97.0836 71.7138 98.4954 72.9084C99.9072 74.0849 100.613 75.7592 100.613 77.9312C100.613 80.2299 99.9072 82.0218 98.4954 83.3069C97.0836 84.5739 95.0835 85.2074 92.4952 85.2074H89.5902V90.1487H83.2914V71.1165H92.4952ZM92.4952 80.429C93.183 80.429 93.7079 80.2299 94.0699 79.8317C94.45 79.4154 94.6401 78.8452 94.6401 78.1212C94.6401 77.4153 94.45 76.8723 94.0699 76.4922C93.7079 76.094 93.183 75.8949 92.4952 75.8949H89.5902V80.429H92.4952ZM90.8934 82.9539H96.975L101.346 90.1487H94.2328L90.8934 82.9539ZM101.743 71.1165H118.874V76.085H113.444V90.1487H107.146V76.085H101.743V71.1165Z" fill="black"/>
<path d="M37.4469 93.4819C38.7757 93.4819 39.8529 92.4047 39.8529 91.076C39.8529 89.7472 38.7757 88.67 37.4469 88.67C36.1182 88.67 35.041 89.7472 35.041 91.076C35.041 92.4047 36.1182 93.4819 37.4469 93.4819Z" stroke="black" stroke-width="2.56115" stroke-linecap="round" stroke-linejoin="round"/>
<path d="M23.0119 93.4819C24.3406 93.4819 25.4178 92.4047 25.4178 91.076C25.4178 89.7472 24.3406 88.67 23.0119 88.67C21.6831 88.67 20.606 89.7472 20.606 91.076C20.606 92.4047 21.6831 93.4819 23.0119 93.4819Z" stroke="black" stroke-width="2.56115" stroke-linecap="round" stroke-linejoin="round"/>
<path d="M19.4028 86.2643V69.4227" stroke="black" stroke-width="2.56115" stroke-linecap="round" stroke-linejoin="round"/>
<path d="M37.4472 88.67H21.8086" stroke="black" stroke-width="2.56115" stroke-linecap="round" stroke-linejoin="round"/>
<path d="M39.8533 83.8585H19.4028" stroke="black" stroke-width="2.56115" stroke-linecap="round" stroke-linejoin="round"/>
<path d="M19.4028 71.8287L42.2592 74.2347" stroke="black" stroke-width="2.56115" stroke-linecap="round" stroke-linejoin="round"/>
<path d="M42.2593 81.4525V74.2347" stroke="black" stroke-width="2.56115" stroke-linecap="round" stroke-linejoin="round"/>
<path d="M19.4028 86.2643C19.4028 87.594 20.479 88.6702 21.8088 88.6702" stroke="black" stroke-width="2.56115" stroke-linecap="round" stroke-linejoin="round"/>
<path d="M42.259 81.4525C42.259 82.7823 41.1828 83.8584 39.853 83.8584" stroke="black" stroke-width="2.56115" stroke-linecap="round" stroke-linejoin="round"/>
<path d="M19.4025 69.4229C19.4025 68.0931 18.3263 67.017 16.9966 67.017" stroke="black" stroke-width="2.56115" stroke-linecap="round" stroke-linejoin="round"/>
<path d="M15.7939 67.017H16.9969" stroke="black" stroke-width="2.56115" stroke-linecap="round" stroke-linejoin="round"/>
<defs>
<filter id="filter0_d_4127_8847" x="13.6596" y="3.21865e-06" width="117.386" height="117.386" filterUnits="userSpaceOnUse" color-interpolation-filters="sRGB">
<feFlood flood-opacity="0" result="BackgroundImageFix"/>
<feColorMatrix in="SourceAlpha" type="matrix" values="0 0 0 0 0 0 0 0 0 0 0 0 0 0 0 0 0 0 127 0" result="hardAlpha"/>
<feOffset dy="1.70744"/>
<feGaussianBlur stdDeviation="2.13429"/>
<feComposite in2="hardAlpha" operator="out"/>
<feColorMatrix type="matrix" values="0 0 0 0 0 0 0 0 0 0 0 0 0 0 0 0 0 0 0.25 0"/>
<feBlend mode="normal" in2="BackgroundImageFix" result="effect1_dropShadow_4127_8847"/>
<feBlend mode="normal" in="SourceGraphic" in2="effect1_dropShadow_4127_8847" result="shape"/>
</filter>
</defs>
</svg>
