<svg width="132" height="132" viewBox="0 0 132 132" fill="none" xmlns="http://www.w3.org/2000/svg">
<path d="M100.511 91.377L100.495 91.6087C100.515 91.6037 100.522 91.5439 100.511 91.377Z" fill="#A2D4FD"/>
<path d="M58.7068 111.148L58.6704 111.109C58.6943 111.141 58.7018 111.149 58.7068 111.148Z" fill="#A2D4FD"/>
<path d="M99.5519 100.162C99.5506 100.157 99.5493 100.152 99.5544 100.151C99.5493 100.131 99.5493 100.109 99.5455 100.094L99.5519 100.162Z" fill="#A2D4FD"/>
<path d="M98.8846 88.8132C99.2251 91.8058 99.1392 92.6194 99.4389 95.7015C99.5129 97.1718 99.6119 98.7415 99.5479 100.146C99.6717 100.828 99.3963 101.98 99.2942 102.686L99.1318 102.923C99.0886 103.15 99.0008 103.41 98.8556 103.525L98.8444 103.502C98.8222 103.581 98.7825 103.612 98.7515 103.657C98.7193 103.697 98.6895 103.746 98.6002 103.811C98.4501 103.928 98.3161 104.025 98.2454 104.101L98.2429 104.07L97.8471 104.365L97.8966 104.289C97.3583 104.752 96.7378 105.119 96.1544 105.382L96.2501 105.447C94.9679 105.955 94.5424 106.32 93.2973 106.744L93.306 106.716C91.9113 107.679 90.9004 107.69 89.4846 108.632C89.6608 108.514 89.3815 108.621 89.3852 108.594C88.6976 108.946 87.9566 109.296 88.0252 109.485C87.5113 109.709 87.582 109.612 87.4813 109.569C87.5237 109.653 87.0893 109.878 86.6847 110.054L86.8571 109.942L85.7065 110.448L85.9972 110.512C85.3616 110.714 85.7648 110.386 85.1877 110.652L85.2462 110.78C84.3785 111.088 83.7923 111.066 82.9244 111.248C81.1678 111.8 79.364 112.333 77.509 112.683C75.6541 113.054 73.8139 113.316 72.0728 113.406L71.9087 113.32C71.8253 113.177 70.9864 113.663 70.8348 113.543L70.4425 113.662C70.3232 113.65 70.0811 113.653 70.2772 113.593C69.9022 113.634 69.8985 113.662 69.6341 113.744L69.2229 113.705C67.7365 113.841 66.5137 114.228 64.9729 114.504C64.7357 114.527 64.4762 114.566 64.1968 114.609C64.0441 114.632 63.8975 114.616 63.695 114.546C63.2924 114.414 62.7927 114.065 62.3301 113.653C61.3914 112.817 60.5355 111.744 59.9321 110.961C58.1545 108.763 57.1381 105.56 55.6321 103.098C55.6083 103.004 55.459 102.809 55.4454 102.818C55.0655 102.021 54.6907 101.223 54.3245 100.417C54.3245 100.417 53.9882 99.6888 53.5423 98.7343C53.0964 97.7799 52.541 96.5995 52.0852 95.7109C51.1837 93.9312 50.5632 93.3321 51.9394 98.0919L51.8797 98.0435C52.3981 99.4127 52.7644 100.26 53.3455 101.102C53.2241 101.333 53.8375 102.198 53.9274 102.534L53.895 102.511C54.4226 103.244 54.5841 104.222 55.0992 104.927C55.0669 104.903 55.011 104.912 54.9201 104.74C55.2276 105.291 55.667 106.03 55.5802 106.126C56.2973 107.445 57.297 109.301 57.9748 110.023L57.9127 109.985C58.3144 110.386 58.3059 110.584 58.6965 111.066C58.7003 111.102 58.7215 111.144 58.7103 111.142C59.1418 111.577 59.7269 112.581 60.0788 112.931L60.0342 113.005C60.288 113.322 60.5541 113.625 60.8352 113.923C60.732 113.807 60.6387 113.688 60.5454 113.569C60.8123 113.538 61.032 114.37 61.8375 114.865C62.157 115.149 62.6019 115.322 63.0528 115.415C63.51 115.511 63.9719 115.5 64.414 115.452C64.7801 115.271 64.1088 115.688 64.6711 115.488C64.7135 115.594 64.418 115.615 64.5857 115.673C65.1443 115.501 65.5369 115.593 66.2234 115.383L66.2707 115.466C67.1595 115.137 68.0191 115.28 68.6075 115.037C69.5473 114.827 69.2833 115.205 70.2516 114.898L70.6541 114.966C71.0837 114.932 70.9407 114.783 71.4201 114.779C71.4028 114.857 72.0237 114.764 71.7593 114.868C72.8484 114.853 73.9209 114.435 75.3678 114.436C75.6532 114.248 76.3809 114.223 76.5931 114.08C76.6391 114.137 78.026 113.857 77.2439 114.128C77.1756 114.15 77.054 114.17 77.0576 114.143L76.9771 114.242C77.8191 114.273 78.4297 113.909 79.2442 113.767C79.0008 113.786 78.6805 113.856 78.8828 113.758C79.1348 113.71 79.3844 113.674 79.634 113.617L79.4975 113.725C79.87 113.652 80.245 113.59 80.6149 113.507L80.4435 113.455C80.9898 113.36 81.2297 113.474 81.7918 113.169C82.045 113.021 81.2541 113.193 81.809 113.006C82.5403 112.87 83.6279 112.618 84.5255 112.323C84.4086 112.258 84.6457 112.172 84.8878 112.063L84.9487 112.138C85.8398 111.671 85.3648 112.197 86.2535 111.741L86.1965 111.829L86.3712 111.558C87.1331 111.061 86.8916 111.549 87.7104 110.942C87.3555 111.105 87.4669 110.834 87.9187 110.678L87.8407 110.809C88.0789 110.686 88.1459 110.616 88.3123 110.564C88.1857 110.669 88.2864 110.713 88.6389 110.54L88.4417 110.742L89.0521 110.293C89.6108 110.142 90.3801 109.653 90.6472 109.665C90.6472 109.665 91.7792 109.19 91.9714 108.947C91.7853 109.131 92.4096 108.863 92.2782 109.033C92.5226 108.808 93.3255 108.326 93.6955 108.265L93.6372 108.306C94.8983 107.82 95.7135 107.261 96.93 106.787C96.8306 106.727 97.4636 106.452 97.2487 106.416C98.3605 105.651 99.4331 105.339 99.5961 104.664C99.8777 104.398 99.983 104.229 100.105 104.104C100.231 103.977 100.298 103.886 100.38 103.728L100.335 103.887C100.398 103.739 100.454 103.604 100.502 103.481C100.541 103.36 100.57 103.247 100.603 103.144C100.671 102.932 100.711 102.758 100.743 102.591C100.822 102.255 100.866 101.964 100.935 101.545C100.939 101.122 100.775 101.036 100.865 100.301C100.926 100.544 100.929 100.243 100.949 99.963C100.951 100.142 100.976 100.199 101.043 99.8338C101.019 99.7816 101.009 99.6997 100.997 99.6289C101.002 99.6277 101.008 99.6103 101.015 99.6189C101 99.1582 100.977 99.2377 100.957 99.4489C100.943 99.4365 100.932 99.4551 100.906 99.5197C101.023 99.0414 100.909 98.1884 101.042 98.1286C100.989 96.7427 100.793 95.773 100.656 94.6405C100.712 94.5051 100.794 94.7695 100.845 95.0998L100.758 94.2926C100.853 94.29 100.847 94.7508 100.889 94.9991C100.975 94.0216 100.568 93.0311 100.589 91.8959L100.485 91.6738L100.489 91.6042C100.449 91.6142 100.366 91.3659 100.336 91.2045C100.399 91.0355 100.528 91.1931 100.458 90.6405C100.487 90.1896 100.263 89.4013 100.14 88.8302C100.165 89.1406 100.111 89.0488 100.062 88.9185C100.019 88.6441 100.081 88.4701 100.019 88.264L100.129 88.2204C100.039 88.3435 99.9149 87.514 99.8539 87.4185C99.9121 87.2507 99.9861 87.8393 100.058 87.8951C99.8854 86.7875 99.9718 87.3413 99.794 86.235C99.6218 85.6553 99.7035 86.3581 99.5628 86.0925C99.459 85.5747 99.3031 85.0807 99.2725 84.4759L99.2032 84.6834C98.966 83.7187 98.8783 83.1388 98.8662 82.4608C97.8208 78.9114 97.4589 78.5853 97.3864 79.1368C97.3101 79.6945 97.4971 81.1312 97.4971 81.1312C97.7828 84.0109 98.3287 85.426 98.8846 88.8132Z" fill="#A2D4FD"/>
<path d="M29.8587 36.0548L30.0654 36.0134C30.0554 35.9948 29.9981 35.9986 29.8587 36.0548Z" fill="#A2D4FD"/>
<path d="M73.6069 19.8766L73.6438 19.8511C73.6196 19.8626 73.6107 19.8702 73.6069 19.8766Z" fill="#A2D4FD"/>
<path d="M37.1721 35.3611L37.167 35.3624L37.1195 35.385L37.1721 35.3611Z" fill="#A2D4FD"/>
<path d="M29.0606 38.3405C29.2107 38.1602 29.3098 37.9664 29.476 37.8506C29.5492 37.7847 29.6187 37.725 29.6832 37.6666C29.7614 37.6205 29.8408 37.5794 29.9202 37.5383C29.9947 37.4985 30.0617 37.45 30.1387 37.42C30.2218 37.3939 30.3 37.3689 30.3782 37.344C30.5347 37.2941 30.6638 37.2405 30.8736 37.193C31.6309 36.9921 32.3932 36.7899 33.606 36.4058C34.778 36.09 36.0182 35.7096 37.1678 35.3677C37.6741 35.0715 38.6873 34.9435 39.3004 34.6309L39.5774 34.6405C39.7884 34.5347 40.0403 34.4238 40.2825 34.3999L40.2738 34.4284C40.5866 34.2653 40.9777 34.1829 41.1303 34.097L41.1217 34.1255L41.5239 33.9822L41.4643 34.0394C42.0229 33.7828 42.6137 33.5709 43.1476 33.405L43.0692 33.3244C44.2312 33.0111 44.5288 32.6406 45.5605 32.3971L45.5568 32.4244C46.6985 31.6939 47.5792 31.8579 48.7792 31.1496C48.6278 31.2405 48.8649 31.1756 48.8613 31.2029C49.4446 30.9612 50.0765 30.7232 50.0166 30.527C50.4536 30.3749 50.3916 30.4644 50.4736 30.5177C50.4425 30.4358 50.8061 30.2652 51.145 30.143L50.9986 30.2326L51.9618 29.8637L51.717 29.7722C52.2484 29.6386 51.9184 29.9222 52.3975 29.7067L52.344 29.5776C53.069 29.3531 53.5571 29.4046 54.2847 29.2533C55.7309 28.7683 57.1968 28.1516 58.6317 27.5374C60.0727 26.927 61.4591 26.288 62.8123 25.8528L62.9676 25.9035C63.077 26.0238 63.599 25.391 63.7531 25.479L64.0323 25.2873C64.1304 25.2785 64.3179 25.2261 64.1839 25.3232C64.4669 25.2098 64.4656 25.1837 64.6493 25.053L64.9883 25.0153C66.1278 24.6127 66.9989 24.0452 68.1769 23.5854C68.9168 23.3782 69.9247 22.9559 70.9375 22.49C71.9515 22.0081 72.9456 21.4677 73.6728 21.0843C74.5304 20.5888 75.4688 20.2473 76.5091 19.9118C77.0131 19.7323 77.4948 19.569 77.9343 19.4902C78.1516 19.4514 78.354 19.4375 78.4944 19.4497C78.6422 19.4706 78.6472 19.4905 78.6994 19.5302C78.9605 19.7919 79.2453 20.0635 79.5362 20.2966C79.5748 20.3661 79.7501 20.4751 79.7625 20.4614C80.2637 20.9849 80.7636 21.5033 81.2387 22.028C81.2387 22.028 81.674 22.4994 82.225 23.137C82.7761 23.7746 83.4466 24.5934 83.9901 25.2013C84.5336 25.8091 84.9589 26.1985 85.0157 25.9836C85.0676 25.7699 84.7821 24.9493 83.7949 23.1647L83.8533 23.187C83.1714 22.1969 82.6775 21.5977 81.9826 21.1018C82.0432 20.8596 81.3185 20.3712 81.1729 20.128L81.2014 20.1366C80.5812 19.7276 80.2585 18.9903 79.6743 18.5775L79.6618 18.5701L79.6792 18.5763C79.719 18.5874 79.7674 18.57 79.8669 18.6717C79.8184 18.6258 79.7699 18.5799 79.7214 18.534C79.4391 18.2512 78.9943 18.0991 78.7136 18.0746C78.4242 18.0365 78.2404 18.0404 78.2167 17.9883C77.4257 18.0763 76.7095 18.3989 76.0877 18.6767C75.9412 18.7452 75.7985 18.8075 75.6607 18.8685C75.513 18.932 75.3715 18.9993 75.24 19.064C74.9769 19.1936 74.756 19.323 74.5909 19.4437L74.6257 19.3927C74.2622 19.69 74.1019 19.6406 73.6713 19.902C73.639 19.8995 73.6042 19.9082 73.6067 19.8971C73.2159 20.2118 72.3221 20.4999 71.9895 20.7102L71.9323 20.6507L71.0648 21.0641L71.3962 20.9333C71.3692 21.183 70.6798 21.1081 70.1004 21.5125C69.4872 21.7406 69.0621 22.4441 68.3917 22.6126C68.1349 22.8303 68.5888 22.3466 68.1743 22.6092C68.1121 22.5087 68.3517 22.4537 68.2014 22.4229C67.7857 22.6594 67.4379 22.6201 66.9316 22.9164L66.8768 22.8457C66.2391 23.2911 65.5014 23.2971 65.097 23.6416C64.3995 24.0176 64.507 23.6051 63.8196 24.0842L63.4793 24.0958C63.1504 24.2155 63.3058 24.3295 62.9234 24.4257C62.9146 24.3487 62.4454 24.5617 62.6278 24.4049C61.7724 24.6358 61.0467 25.2565 59.8995 25.5238C59.7222 25.7638 59.1536 25.8962 59.0222 26.0665C58.9687 26.0218 57.9335 26.4827 58.4907 26.1156C58.5403 26.082 58.6322 26.0484 58.6334 26.0744L58.6743 25.9639C58.0037 26.048 57.5957 26.4832 56.9775 26.6914C57.1675 26.6489 57.407 26.5517 57.2669 26.6662L56.6946 26.8681L56.7876 26.755L55.9273 27.0294L56.0751 27.0714C55.6431 27.18 55.4455 27.0871 55.0224 27.3783C54.8375 27.5251 55.4595 27.3529 55.03 27.5348C54.454 27.6796 53.5874 27.8869 52.8636 28.1164C52.9668 28.1908 52.7719 28.2556 52.5833 28.3453L52.5322 28.2683C51.8162 28.6543 52.1881 28.1806 51.4708 28.5405L51.5191 28.4597L51.3803 28.7058C50.7586 29.1102 50.9518 28.6604 50.2781 29.1519C50.5698 29.031 50.4869 29.2894 50.1033 29.3806L50.1689 29.2638C49.9691 29.351 49.9158 29.4119 49.7755 29.4419C49.8809 29.3573 49.7976 29.299 49.5059 29.4199L49.6684 29.2471L49.1547 29.598C48.6853 29.6632 48.0363 30.0217 47.8139 29.9773C47.8139 29.9773 46.8568 30.2654 46.6857 30.4669C46.8444 30.3213 46.3193 30.4798 46.4309 30.3356C46.2225 30.5147 45.5312 30.8522 45.2083 30.87L45.2579 30.8364C44.1629 31.1433 43.4967 31.6857 42.5345 31.9118C42.6129 31.9924 42.1014 32.121 42.2692 32.2003C41.3433 32.6759 40.4042 32.553 40.1714 33.055C39.7258 33.2146 39.6089 33.1278 39.368 33.1778L39.4711 33.1255C38.6344 33.4098 38.3836 33.4834 37.7504 33.6531C37.4438 33.7777 37.4466 33.9776 36.863 34.0927C37.0268 33.967 36.7984 34.0456 36.5861 34.1042C36.7214 34.0544 36.7549 34.0195 36.4606 34.046C36.4271 34.0808 36.3713 34.1107 36.3142 34.1356C36.3129 34.1307 36.2968 34.1294 36.2992 34.1183C35.9504 34.2429 36.02 34.2466 36.1851 34.2103C36.1777 34.2227 36.1963 34.2339 36.2559 34.24C35.8622 34.2492 35.2243 34.5258 35.1484 34.4129C34.0832 34.7335 33.3509 35.076 32.4733 35.3864C32.354 35.353 32.5451 35.2311 32.7996 35.1301L32.1714 35.3408C32.1477 35.2465 32.5214 35.1789 32.7089 35.1054C31.9079 35.1748 31.1982 35.7122 30.2757 35.865C30.2223 35.9048 30.1665 35.9558 30.1107 36.0068L30.0648 36.013C30.0797 36.0515 29.8924 36.1884 29.762 36.2581C29.6801 36.247 29.6589 36.2048 29.6067 36.1863C29.5496 36.169 29.4552 36.1716 29.2356 36.3271C28.8259 36.4618 28.2927 37.0921 28.0773 37.5793C28.2521 37.3505 28.2361 37.4549 28.1915 37.5717C28.0415 37.7731 27.9187 37.8726 27.868 38.0701L27.7562 38.0454C27.8245 38.023 27.7812 38.187 27.7256 38.3646C27.6935 38.5522 27.6491 38.7535 27.6566 38.8044C27.5375 38.9188 27.6909 38.4156 27.6548 38.3349C27.3878 39.3102 27.4927 38.8245 27.3624 39.7971C27.414 40.3174 27.474 39.7162 27.5576 39.9645C27.5433 40.4116 27.6295 40.8387 27.5917 41.3392L27.6821 41.1739C27.8111 41.981 27.8726 42.4566 27.8485 43.0118C28.754 45.8993 29.045 46.1958 29.1673 45.7373C29.2204 45.5075 29.2285 45.0778 29.2032 44.7251C29.1866 44.365 29.1502 44.0732 29.1502 44.0732C29.0592 42.8922 28.9066 42.0541 28.8023 41.1774C28.7019 40.3157 28.5962 39.3496 29.0606 38.3405Z" fill="#A2D4FD"/>
<path d="M45.14 28.8119L45.247 28.7903C45.2332 28.7777 45.2067 28.779 45.14 28.8119Z" fill="#A2D4FD"/>
<path d="M70.6156 16.6098C70.6245 16.6021 70.6296 16.6009 70.6385 16.5932C70.6181 16.5983 70.6143 16.6047 70.6156 16.6098Z" fill="#A2D4FD"/>
<path d="M49.5233 27.8048L49.5182 27.8061C49.5093 27.8138 49.5054 27.8201 49.4965 27.8278L49.5233 27.8048Z" fill="#A2D4FD"/>
<path d="M44.6691 30.6146C44.9992 30.4366 45.2809 30.2971 45.5291 30.1713C45.6594 30.1016 45.7736 30.0518 45.9027 29.9771C45.9672 29.9398 46.0317 29.9024 46.0963 29.8651C46.1496 29.8253 46.203 29.7854 46.2514 29.7469C46.3035 29.7021 46.3593 29.6511 46.3568 29.6623C46.708 29.442 47.0455 29.2304 47.6027 28.8844C48.2319 28.5309 48.9033 28.1562 49.5188 27.8113C49.7569 27.5192 50.3528 27.3905 50.6555 27.1032L50.8318 27.1116C50.9385 27.0109 51.0676 26.9151 51.2166 26.8987L51.2178 26.9248C51.3754 26.7743 51.6026 26.7119 51.6795 26.6398L51.6807 26.6659L51.9054 26.5513L51.8806 26.5998C52.1759 26.3883 52.516 26.2289 52.8214 26.1204L52.7529 26.0373C53.4358 25.8551 53.5881 25.558 54.2201 25.4256L54.2214 25.4516C54.8428 24.8783 55.4566 25.1147 56.1154 24.5425C56.0335 24.6159 56.1763 24.5747 56.1775 24.6008C56.5176 24.4203 56.8837 24.2385 56.8052 24.0523C57.0621 23.9402 57.0399 24.0197 57.1021 24.078C57.066 23.9973 57.2707 23.8666 57.468 23.7695L57.3911 23.8416L57.9484 23.559L57.7694 23.4561C58.0897 23.365 57.9298 23.6111 58.2041 23.4419L58.1406 23.3153C58.5688 23.1495 58.9005 23.2298 59.3425 23.1398C61.0318 22.4247 62.6697 21.2737 64.3245 20.7785L64.4351 20.8404C64.5297 20.9645 64.7662 20.4351 64.8868 20.5368L65.0393 20.3876C65.1027 20.3875 65.2194 20.3687 65.1475 20.4396C65.3138 20.3661 65.3088 20.3462 65.4105 20.2467L65.6278 20.2502C66.318 20.0133 66.7969 19.5867 67.5069 19.3026C67.9613 19.1989 68.5633 18.9261 69.1552 18.6136C69.4543 18.4592 69.7447 18.2912 70.0215 18.1318C70.2933 17.9737 70.5154 17.8493 70.7413 17.7397C71.9463 17.0513 73.6803 17.2489 75.0058 16.5567C75.0281 16.5616 75.0703 16.5404 75.0877 16.5255C75.0951 16.5131 75.105 16.4895 75.1025 16.4795C75.1795 16.4707 75.2329 16.4731 75.3236 16.519C75.4193 16.5636 75.5325 16.6566 75.6394 16.7669C75.6394 16.7669 75.6904 16.8228 75.7725 16.9183C75.8559 17.0188 75.9691 17.1751 76.096 17.3649C76.3461 17.7509 76.6188 18.2895 76.8417 18.7139C77.0683 19.1322 77.2736 19.4238 77.42 19.2919C77.5403 19.1614 77.6836 18.6184 77.4385 17.3284L77.4845 17.3432C77.2202 16.6282 76.9414 16.1492 76.3809 15.8519C76.4217 15.7413 76.2787 15.6136 76.0923 15.5021C75.8959 15.393 75.6574 15.3263 75.5269 15.2693L75.5554 15.2569C75.2623 15.2461 74.9817 15.2427 74.6973 15.3089C74.4291 15.3552 74.1721 15.3618 73.9574 15.5161C73.9686 15.4974 73.9586 15.4366 74.0517 15.4079C73.7687 15.5213 73.3801 15.677 73.3266 15.5691C72.6351 15.801 71.622 16.0346 71.2251 16.3667L71.2461 16.3244C71.029 16.5321 70.9134 16.4503 70.6479 16.6121C70.6243 16.6022 70.6032 16.6022 70.6069 16.596C70.3699 16.8087 69.7777 16.9312 69.5842 17.0855L69.5357 17.0185L69.0156 17.2812L69.218 17.2039C69.2394 17.4361 68.7635 17.2654 68.4385 17.5688C68.0674 17.7097 67.9042 18.3209 67.4846 18.3948C67.3494 18.5713 67.5712 18.1723 67.3392 18.3627C67.2819 18.2609 67.4347 18.2383 67.3266 18.1863C67.0896 18.3568 66.8535 18.2789 66.5644 18.4941L66.5134 18.4172C66.1611 18.7592 65.6754 18.6754 65.4634 18.9451C65.0601 19.2102 65.0621 18.8401 64.6888 19.2032L64.4652 19.175C64.2666 19.246 64.3885 19.3738 64.1513 19.4176C64.1326 19.3431 63.8571 19.4863 63.9525 19.3619C63.4224 19.4794 63.0442 19.9705 62.3216 20.0782C62.2449 20.277 61.8873 20.3458 61.8341 20.4912C61.7893 20.4391 61.1886 20.7802 61.4888 20.483C61.5148 20.4606 61.5719 20.4356 61.5782 20.4605L61.5842 20.3586C61.1508 20.3778 60.9638 20.7469 60.5926 20.8878C60.7131 20.8628 60.8484 20.7918 60.7789 20.8937L60.4401 21.037L60.4785 20.9376L59.967 21.1295L60.0751 21.1816C59.8132 21.2527 59.6603 21.1486 59.442 21.3935C59.3466 21.5178 59.7227 21.3969 59.4795 21.5425C59.1282 21.6361 58.603 21.7734 58.176 21.9441C58.2581 22.0185 58.1439 22.0684 58.0396 22.1368L57.9886 22.0599C57.6028 22.3734 57.7463 21.9571 57.353 22.2408L57.3666 22.1688L57.3271 22.3899C57.0059 22.7293 57.0401 22.3195 56.7004 22.7322C56.8679 22.6426 56.8633 22.8761 56.6348 22.9335L56.6508 22.8292C56.5416 22.8989 56.5169 22.9473 56.4275 22.9698C56.4771 22.894 56.4161 22.8407 56.2486 22.9303L56.3217 22.7799L56.0563 23.0684C55.7669 23.0936 55.4059 23.3798 55.2568 23.3117C55.2568 23.3117 54.6857 23.4975 54.6139 23.6739C54.6933 23.5484 54.3767 23.6544 54.4237 23.5264C54.3184 23.6743 53.9287 23.9307 53.7176 23.9098L53.7436 23.8874C53.0819 24.0696 52.7322 24.4849 52.1226 24.6223C52.1911 24.7054 51.8732 24.7853 52.0013 24.8746C51.4789 25.2541 50.8367 25.1146 50.8013 25.5828C50.5518 25.7248 50.4524 25.6442 50.3059 25.6916L50.3567 25.6418C49.8851 25.9082 49.7449 25.9804 49.3812 26.1511C49.2175 26.2767 49.2748 26.4629 48.9347 26.5801C49.0053 26.462 48.8825 26.5404 48.7596 26.5977C48.8316 26.548 48.844 26.5132 48.6627 26.5482C48.6503 26.583 48.6255 26.6103 48.5957 26.6389C48.5895 26.6352 48.5833 26.6315 48.5821 26.6265C48.3922 26.7535 48.4407 26.7571 48.5362 26.7173C48.5387 26.7272 48.5524 26.7396 48.5897 26.7408C48.3363 26.7622 48.0163 27.0433 47.9329 26.9428C47.3485 27.2852 46.9825 27.6359 46.5235 27.973C46.4328 27.9483 46.5183 27.8265 46.6498 27.7195L46.3123 27.9522C46.265 27.8691 46.486 27.7818 46.5827 27.7047C46.0861 27.8296 45.7999 28.3292 45.2465 28.669C45.2527 28.6938 45.2689 28.7161 45.2627 28.7546L45.2329 28.7621C45.2566 28.7932 45.1946 28.9038 45.1388 28.9548C45.0307 28.9239 45.0392 28.7897 44.8221 28.9341C44.6048 28.9729 44.3282 29.28 44.1099 29.4616C44.2464 29.3956 44.2316 29.4627 44.1882 29.5211C44.074 29.592 43.9597 29.5574 43.8916 29.6432L43.8256 29.5489C43.9263 29.6133 43.5739 29.8287 43.5528 29.892C43.4435 29.8562 43.7004 29.7229 43.6991 29.6546C43.2312 29.9359 43.4645 29.7928 42.9967 30.0741C42.7821 30.2917 43.0974 30.1385 43.0206 30.2951C42.8096 30.4432 42.6248 30.6322 42.3356 30.7208L42.4673 30.7616C42.0852 31.0689 41.8221 31.1984 41.4868 31.2721C40.8034 31.8927 40.4413 32.3006 40.3472 32.5354C40.2767 32.759 40.3451 32.8633 40.509 32.8432C40.5824 32.9039 40.8257 32.8217 41.0206 32.7568C41.2143 32.687 41.3818 32.6185 41.3818 32.6185C42.7237 32.1386 43.2259 31.5318 44.6691 30.6146Z" fill="#A2D4FD"/>
<path d="M45.4438 39.8291L45.7895 39.7739C45.7796 39.7553 45.6875 39.7678 45.4438 39.8291Z" fill="#A2D4FD"/>
<path d="M51.7876 42.7327C51.7637 42.744 51.7348 42.7567 51.7108 42.768C51.7637 42.744 51.7826 42.7339 51.7876 42.7327Z" fill="#A2D4FD"/>
<path d="M58.8579 37.5066C58.8529 37.5078 58.8429 37.5103 58.8379 37.5116C58.8092 37.5241 58.7805 37.5366 58.7518 37.5492L58.8579 37.5066Z" fill="#A2D4FD"/>
<path d="M41.7485 42.2466C46.2177 40.9752 47.4608 40.858 52.0951 39.487C54.3198 38.8854 56.681 38.1756 58.8424 37.5108C59.8266 37.0575 61.684 36.6538 62.857 36.1319L63.3511 36.0605C63.7545 35.8799 64.2299 35.6917 64.6657 35.598L64.6472 35.629C65.2491 35.3563 65.958 35.1516 66.2559 35.0134L66.2373 35.0445L66.9846 34.7616L66.8679 34.8437C67.9217 34.3939 69.0191 33.9702 69.9972 33.6187L69.8804 33.553C71.992 32.8374 72.6445 32.3037 74.5239 31.6517L74.5116 31.6865C76.7193 30.4503 78.2293 30.303 80.5328 29.1536C80.2461 29.2944 80.6806 29.1534 80.6633 29.1895C81.7606 28.7447 82.9523 28.3395 82.9073 28.1396C83.7291 27.8801 83.5927 27.9884 83.7244 28.0292C83.7082 27.9857 83.8683 27.9085 84.1537 27.784C84.4194 27.6644 84.752 27.5174 85.0636 27.3915L84.7893 27.5397C85.3863 27.2893 85.9672 27.0376 86.542 26.8878C86.4178 26.8557 86.2874 26.841 86.1557 26.8213C86.6324 26.7014 86.6971 26.7696 86.7592 26.7857C86.7891 26.7993 86.8139 26.8142 86.8884 26.8166C86.9567 26.8153 87.0784 26.7952 87.2622 26.7913L87.2583 26.6497C87.5353 26.6592 87.6994 26.7658 87.7766 26.9259C87.8214 26.9992 87.824 27.0935 87.839 27.1742C87.844 27.2152 87.8703 27.3617 87.889 27.4362C87.909 27.5157 87.9315 27.6051 87.9539 27.6734C88.045 27.9725 88.1434 28.2382 88.2382 28.51C88.3267 28.7782 88.4252 29.0649 88.4727 29.317C88.5188 29.4374 88.493 29.5865 88.3576 29.6152C87.1636 30.116 85.9558 30.6256 84.7419 31.1314C83.4944 31.651 82.2457 32.1655 80.997 32.659C78.5045 33.6447 76.0318 34.5409 73.673 35.2184L73.4184 35.1927C73.2741 35.0811 72.0954 35.8738 71.8605 35.8008L71.2921 36.0599C71.1195 36.0874 70.7607 36.1724 71.0399 36.0441C70.4912 36.2137 70.4875 36.241 70.1077 36.4104L69.4919 36.5019C67.3242 37.0997 65.5243 37.7739 63.2089 38.3297C60.3978 38.8463 55.1749 40.3125 52.2268 41.3969C48.128 42.9871 43.1306 43.9848 38.9611 45.6296C38.8146 45.6559 38.4757 45.8203 38.4795 45.8352L34.5877 47.0935C34.5877 47.0935 33.4133 47.4838 31.8691 47.9987C31.6742 48.0636 31.4793 48.1284 31.2757 48.2007C31.1739 48.2369 31.0659 48.2693 30.9641 48.3054C30.8424 48.3466 30.722 48.3927 30.6016 48.4388C30.12 48.6444 29.7304 48.9218 29.3879 49.0924C29.2216 49.187 28.9955 49.17 28.7022 49.0114C28.4201 48.8553 28.1515 48.606 27.945 48.3517C27.7335 48.0986 27.5792 47.8417 27.5044 47.6282C27.4296 47.4147 27.4269 47.257 27.4553 47.1178C27.5133 46.8445 27.6596 46.6494 27.4982 46.6794C27.4336 46.6956 27.2946 46.7517 27.1421 46.9431C26.9921 47.1234 26.8646 47.4987 26.9795 47.9766C27.0919 48.4447 27.3559 48.9908 27.8783 49.5353C28.1494 49.7945 28.4925 50.0884 29.0403 50.1883C29.3112 50.2364 29.634 50.1974 29.9058 50.0816C30.1268 49.9943 30.344 49.8922 30.5525 49.7975L30.4818 49.8734C30.9733 49.602 31.3035 49.5295 31.7989 49.3786C32.2495 49.2389 32.6654 49.108 33.0552 48.9783C33.8385 48.7127 34.5324 48.4485 35.2373 48.1234C35.5318 48.2447 36.9939 47.5709 37.5117 47.4671L37.472 47.4982C38.7256 46.9191 40.1921 46.7457 41.401 46.1989C41.3563 46.2313 41.3452 46.2922 41.0585 46.3906C41.9647 46.0678 43.196 45.6104 43.3042 45.7046C45.4766 44.9578 48.538 44.0086 49.8722 43.3722L49.7878 43.4357C50.5412 43.0509 50.8182 43.0816 51.6784 42.7228C51.7305 42.7202 51.7963 42.709 51.7876 42.7164C52.6018 42.3006 54.3015 41.8996 54.9941 41.6516L55.0625 41.7136L56.8006 41.2133L56.1438 41.3731C56.3123 41.0984 57.5009 41.1428 58.736 40.6791C59.9329 40.3994 61.0471 39.6229 62.3136 39.4101C62.8796 39.1622 61.8334 39.7051 62.6974 39.4034C62.7546 39.5052 62.3027 39.5765 62.5536 39.6085C63.4089 39.3354 64.0063 39.3594 65.0627 39.0041L65.1286 39.0773C66.4854 38.5514 67.7967 38.4751 68.6767 38.048C70.0807 37.5419 69.7187 38.013 71.1473 37.374L71.7582 37.3049C72.3976 37.1178 72.1664 37.0175 72.8828 36.8427C72.8618 36.9271 73.7841 36.6055 73.3969 36.8085C75.0183 36.3903 76.5473 35.5623 78.6827 35.0044C79.0822 34.7033 80.1473 34.4038 80.4439 34.1761C80.5234 34.2195 82.5206 33.4059 81.4073 33.9762C81.3143 34.026 81.1343 34.087 81.138 34.0597L81.0288 34.1928C82.2605 33.9042 83.1278 33.3007 84.2921 32.8707C83.9383 32.9755 83.489 33.1624 83.7669 32.9869L84.8419 32.5794L84.6434 32.7349L86.2522 32.1404L86.0001 32.1457C86.7983 31.8763 87.1287 31.9094 87.9577 31.4265C88.3274 31.1962 87.1755 31.6126 87.9823 31.2513C88.1325 31.1977 88.2926 31.1416 88.4627 31.083C88.5446 31.0519 88.6327 31.0244 88.7246 30.9908C88.845 30.9447 88.9654 30.8986 89.097 30.8549C89.2881 30.7752 89.4594 30.6582 89.6194 30.5177C89.767 30.3697 89.881 30.172 89.9279 29.9596C89.9588 29.8515 89.9798 29.7459 89.9821 29.6292C89.9906 29.5162 89.983 29.4019 89.9643 29.2852C89.9467 29.1734 89.9416 29.048 89.9042 28.9413C89.8742 28.8432 89.8605 28.7674 89.8306 28.6905C89.6373 28.0897 89.3609 27.5783 89.189 27.1675C89.1655 27.242 89.117 27.1961 89.0647 27.1142C89.0386 27.0733 89.0124 27.0112 89.0024 26.9926C88.9987 26.9777 88.9962 26.9889 88.9887 26.9591L88.9501 26.8474C88.9214 26.7754 88.8965 26.6972 88.8666 26.6202L88.9236 26.5109C88.7704 26.2167 88.5851 26.0046 88.4073 25.8856C88.2395 25.743 88.0792 25.6935 87.9636 25.6328C87.725 25.5239 87.6219 25.5128 87.5088 25.4621C87.3908 25.4125 87.3014 25.3928 87.0927 25.3819C86.884 25.371 86.5959 25.4012 86.1739 25.5284L86.3141 25.4351C86.1689 25.5297 86.0411 25.6304 85.9183 25.7299C85.2393 26.0326 85.0643 26.0714 84.852 26.1089C84.6496 26.1439 84.4137 26.2138 83.7895 26.5872C84.3133 26.3605 84.1063 26.6924 83.4434 26.8696C83.4955 26.8248 83.5463 26.7751 83.5885 26.7328C83.2223 26.8724 83.0883 26.9483 82.8251 27.0145C83.0448 26.9012 82.9106 26.8504 82.3396 27.0573L82.6932 26.8259L81.6606 27.3389C80.7965 27.5351 79.5268 28.1341 79.1517 28.1545C79.1517 28.1545 78.7048 28.3091 78.2158 28.5059C77.7267 28.7028 77.1942 28.937 77.0243 29.0801C77.3432 28.8573 76.3687 29.2237 76.6081 29.021C76.1912 29.2948 74.8967 29.9212 74.3293 30.0585L74.4274 30.0075C72.4276 30.7479 71.1458 31.5717 69.3445 32.1566C69.4613 32.2222 68.5104 32.5352 68.7874 32.5659C67.0051 33.3942 65.3436 33.5479 64.8067 34.1634C63.9663 34.475 63.77 34.4081 63.3268 34.5354L63.5216 34.4495C61.9451 35.0042 61.4808 35.1526 60.2878 35.5106C59.7044 35.7312 59.6674 35.9412 58.5861 36.2183C58.9112 36.0415 58.478 36.1874 58.0795 36.3034C58.3327 36.2186 58.4047 36.1689 57.8658 36.2727C57.7976 36.3162 57.6883 36.3648 57.5828 36.4072C57.5766 36.4035 57.5555 36.4035 57.5629 36.3911C56.9013 36.6155 57.0242 36.6004 57.3371 36.5218C57.3247 36.5354 57.3532 36.5441 57.4563 36.534C56.7336 36.6418 55.5234 37.0992 55.4028 36.9975C53.3941 37.5975 51.9902 38.1247 50.3192 38.6399C50.1006 38.6315 50.4817 38.467 50.9596 38.3099L49.7703 38.6617C49.7565 38.5649 50.4431 38.4186 50.8031 38.2965C49.3442 38.5418 47.9132 39.2553 46.2122 39.5879L45.8858 39.7598L45.7839 39.7748C45.7989 39.8133 45.4427 39.9715 45.1994 40.0538C44.9423 40.0392 45.1619 39.8626 44.3413 40.1058C43.667 40.2173 42.5002 40.6796 41.6623 40.98C42.1279 40.8577 41.9914 40.9448 41.8027 41.0344C41.3906 41.1592 41.1347 41.1496 40.8244 41.2804L40.7523 41.1824C40.9448 41.2343 39.7158 41.6172 39.5756 41.7105C39.3148 41.7022 40.19 41.4452 40.2731 41.3556C38.6369 41.8832 39.4525 41.62 37.8164 42.1475C36.9686 42.5138 38.0089 42.1994 37.623 42.4285C36.8633 42.7039 36.1434 43.0539 35.2434 43.296L35.5538 43.2919C34.1475 43.8725 33.2872 44.168 32.2878 44.4139C31.0243 45.0167 29.9392 45.3001 29.1846 45.6588C28.4213 46.0038 27.9784 46.3633 27.7713 46.6318C27.5842 46.8954 27.4975 47.0967 27.5212 47.1488C27.5424 47.2121 27.6615 47.161 27.8327 47.0441C27.973 46.9718 28.1504 46.8586 28.3987 46.7539C28.642 46.6505 28.9337 46.5508 29.2192 46.4685C29.7903 46.3038 30.3316 46.1888 30.3316 46.1888C30.8667 46.0701 31.3882 45.9601 31.922 45.7942C32.4037 45.6309 32.8655 45.4726 33.3086 45.3242C34.1726 45.0225 34.9819 44.7134 35.8086 44.3894C37.462 43.7203 39.2296 43.0436 41.7485 42.2466Z" fill="#A2D4FD"/>
<path d="M38.3708 65.8373L38.392 65.7734C38.372 65.7784 38.3607 65.7973 38.3708 65.8373Z" fill="#A2D4FD"/>
<path d="M32.7986 53.4366L32.7854 53.4287C32.788 53.4392 32.7933 53.4379 32.7986 53.4366Z" fill="#A2D4FD"/>
<path d="M38.9399 63.3545L38.9412 63.3596L38.9552 63.3723L38.9399 63.3545Z" fill="#A2D4FD"/>
<path d="M39.8004 66.0634C39.6219 65.3532 39.7482 65.0997 39.4083 64.3984C39.2935 64.0471 39.1093 63.6922 38.9424 63.3645C38.7374 63.263 38.7468 62.9227 38.5455 62.7938L38.5863 62.6832C38.5167 62.6373 38.4545 62.579 38.4706 62.4958L38.4954 62.4896C38.3947 62.4251 38.3809 62.3071 38.3262 62.2787L38.351 62.2724L38.2876 62.1669L38.331 62.1718C38.193 62.0429 38.1108 61.884 38.0709 61.7251L37.984 61.7786C37.9475 61.4235 37.6941 61.4027 37.6937 61.0649L37.7185 61.0586C37.3047 60.8195 37.6332 60.4254 37.2305 60.1676C37.2802 60.1973 37.2727 60.1253 37.2975 60.1191C37.1955 59.9652 37.0984 59.789 36.9134 59.8724C36.8611 59.7483 36.9244 59.7482 36.9914 59.6997C36.9108 59.7358 36.8299 59.6453 36.7801 59.5522L36.8298 59.5819L36.6792 59.3188L36.5515 59.4407C36.5314 59.2768 36.7214 59.3188 36.6219 59.196L36.4941 59.2545C36.4305 59.0434 36.568 58.8346 36.5777 58.5999C36.2673 57.7645 35.5497 57.0314 35.4343 56.1734L35.515 56.0951C35.649 56.0191 35.2118 55.9812 35.3272 55.8941L35.2228 55.8359C35.2351 55.8011 35.24 55.7365 35.2897 55.7663C35.2586 55.6843 35.2338 55.6906 35.1654 55.6497L35.2124 55.5217C35.1337 55.1666 34.8366 54.972 34.712 54.6232C34.7001 54.1351 34.1689 53.4503 33.8592 53.0583C33.3518 52.5522 33.5306 51.5622 32.9611 51.0612C32.9697 51.0326 32.8989 51.0029 32.8853 51.0116L32.7445 50.7249L32.6262 50.4642C32.6262 50.4642 32.5465 50.2942 32.4133 50.0584C32.2751 49.8239 32.081 49.5348 31.8187 49.3314C31.6931 49.231 31.5328 49.1604 31.4086 49.1494C31.2683 49.1372 31.2087 49.1944 31.1989 49.2813C31.1903 49.3732 31.229 49.5061 31.2292 49.675C31.2357 49.8476 31.2273 50.0662 31.2202 50.3742L31.1842 50.378C31.2666 50.6846 31.3389 50.8882 31.5962 51.0295C31.5118 51.0929 31.5392 51.1599 31.589 51.2319C31.64 51.3088 31.7096 51.3758 31.6998 51.4205L31.6786 51.4206C31.9172 51.5295 31.7686 51.8626 31.9911 51.9703C31.9749 51.9691 31.9228 51.9928 31.8979 51.9568C31.99 52.0709 32.1256 52.2322 32.0251 52.2944C32.2155 52.5897 32.39 53.0528 32.6621 53.1691L32.6248 53.1679C32.7975 53.2248 32.7182 53.3082 32.8437 53.4086C32.8313 53.4223 32.8289 53.4334 32.8239 53.4347C32.9991 53.5015 33.0256 53.7958 33.1238 53.8715L33.0555 53.915L33.1962 54.1595L33.165 54.0564C33.381 53.9916 33.133 54.3074 33.3481 54.4275C33.4042 54.6088 33.9245 54.5783 33.9124 54.8031C34.0441 54.8439 33.7261 54.7971 33.8554 54.8914C33.7524 54.9437 33.7634 54.8617 33.6965 54.9313C33.8071 55.0355 33.6869 55.1872 33.8286 55.3099L33.7504 55.356C33.9953 55.4898 33.8218 55.7868 34.0243 55.8574C34.186 56.0385 33.8495 56.1072 34.1081 56.2534L34.0362 56.3876C34.0612 56.487 34.2014 56.3936 34.1966 56.5216C34.1234 56.5453 34.1993 56.6793 34.1061 56.6446C34.104 56.9303 34.4767 57.0478 34.4338 57.444C34.599 57.45 34.5893 57.6425 34.7123 57.6486C34.6577 57.6834 34.8443 57.9638 34.6355 57.8474C34.6169 57.8362 34.6106 57.8114 34.6342 57.8002L34.5436 57.8177C34.4731 58.0624 34.7737 58.103 34.8249 58.2855C34.8298 58.2209 34.7924 58.1564 34.8657 58.1749L34.9293 58.3437L34.8485 58.3376L34.9184 58.5946L34.9854 58.525C34.9943 58.6653 34.8727 58.7698 35.0504 58.8466C35.1423 58.8763 35.1098 58.6838 35.1969 58.7992C35.212 58.9855 35.2335 59.2599 35.2971 59.4709C35.3815 59.4075 35.4015 59.4658 35.45 59.5117L35.3705 59.5528C35.5806 59.7165 35.2254 59.7107 35.4119 59.8856L35.3449 59.8919L35.5411 59.8742C35.7884 59.9969 35.4171 60.0532 35.7365 60.1683C35.6854 60.0914 35.8965 60.0489 35.9103 60.1668L35.8172 60.1744C35.862 60.2265 35.8992 60.2277 35.9005 60.2749C35.8434 60.2576 35.7764 60.3061 35.8287 60.388L35.7045 60.377L35.9232 60.4699C35.8948 60.6301 36.0912 60.7814 36.0007 60.8833C36.0007 60.8833 36.0682 61.1726 36.2172 61.1774C36.1178 61.1601 36.1578 61.319 36.046 61.3155C36.164 61.3439 36.3232 61.515 36.2749 61.6381L36.2563 61.6269C36.3002 61.9696 36.6245 62.0834 36.6374 62.4076C36.723 62.3491 36.7393 62.5192 36.8423 62.4247C37.0935 62.6467 36.8406 63.0481 37.2591 62.9693C37.3412 63.086 37.2444 63.1631 37.2569 63.2339L37.2259 63.2153C37.364 63.4287 37.4013 63.4933 37.4662 63.667C37.542 63.7377 37.7208 63.6717 37.7483 63.8443C37.6589 63.8245 37.6999 63.8828 37.7199 63.9412C37.6962 63.9102 37.6639 63.9077 37.6454 64.0021C37.6728 64.0058 37.6914 64.017 37.7101 64.0281C37.7051 64.0294 37.7014 64.0356 37.6914 64.0381C37.7561 64.1274 37.7698 64.0976 37.7635 64.0516C37.7734 64.0491 37.7871 64.0404 37.8019 64.0156C37.7574 64.1535 37.9253 64.2961 37.8086 64.3571C37.953 64.6376 38.1594 64.8075 38.2976 65.042C38.2467 65.0917 38.1684 65.0533 38.1162 64.9926L38.2009 65.1614C38.1078 65.19 38.1113 65.0783 38.0728 65.0299C38.0011 65.2908 38.3751 65.4132 38.3233 65.7114L38.4153 65.741L38.4091 65.7584C38.4476 65.7435 38.5159 65.7844 38.5396 65.8154C38.4713 65.8801 38.3533 65.8728 38.4007 65.9982C38.3574 66.1199 38.5315 66.2662 38.6136 66.3829C38.6048 66.3059 38.6557 66.3195 38.6918 66.3368C38.713 66.4001 38.6485 66.4586 38.6957 66.4995L38.5902 66.5419C38.682 66.4871 38.7493 66.6708 38.8052 66.6832C38.7358 66.7429 38.707 66.6075 38.6387 66.6089C38.7285 66.8609 38.6811 66.7355 38.7696 66.9825C38.8927 67.0941 38.8664 66.9265 38.9807 66.9611C39.0405 67.0728 39.1486 67.1671 39.1253 67.3261L39.2071 67.2527C39.3527 67.4537 39.3827 67.594 39.3283 67.7766C40.628 69.2081 40.502 67.8036 40.502 67.8036C40.5072 67.0895 40.1256 66.8317 39.8004 66.0634Z" fill="#A2D4FD"/>
<path d="M88.1348 33.5788L88.1073 33.639C88.1274 33.6339 88.1386 33.6151 88.1348 33.5788Z" fill="#A2D4FD"/>
<path d="M91.2856 46.0293C91.2922 46.0332 91.2936 46.0385 91.2988 46.0372C91.2922 46.0332 91.2922 46.0332 91.2856 46.0293Z" fill="#A2D4FD"/>
<path d="M87.3812 35.8748L87.3674 35.8623L87.3812 35.8748Z" fill="#A2D4FD"/>
<path d="M86.7171 33.3809C86.8732 34.0439 86.7406 34.2726 87.0247 34.9193C87.1108 35.2408 87.2627 35.5722 87.3811 35.8751C87.5713 35.9804 87.5108 36.286 87.6874 36.4211L87.6266 36.5156C87.6863 36.5639 87.7386 36.6247 87.7101 36.7005L87.6853 36.7068C87.7773 36.7787 87.7687 36.8917 87.8147 36.9277L87.7899 36.9339L87.8323 37.0394L87.7937 37.0332C87.9069 37.1685 87.9643 37.3336 87.9806 37.4826L88.075 37.4377C88.0605 37.7793 88.299 37.8249 88.2572 38.1417L88.2324 38.1479C88.5979 38.4045 88.2432 38.7788 88.5701 39.0081C88.5253 38.9771 88.5254 39.0405 88.4993 39.0418C88.5678 39.1882 88.6227 39.3645 88.8226 39.3195C88.8476 39.44 88.7818 39.4301 88.711 39.4637C88.8004 39.4413 88.8564 39.5381 88.8864 39.6361L88.8404 39.6002L88.9289 39.8683L89.0803 39.7775C89.0669 39.934 88.8892 39.8572 88.9589 39.9875L89.0942 39.9588C89.1144 40.1649 88.9283 40.3278 88.8677 40.549C88.9793 41.371 89.5107 42.1825 89.4236 42.9911L89.3268 43.0471C89.1803 43.0945 89.5953 43.212 89.4612 43.2668L89.5483 43.3399C89.5247 43.3723 89.5074 43.4294 89.4664 43.3922C89.4764 43.4742 89.5025 43.4729 89.5622 43.5212L89.489 43.6294C89.4845 43.9684 89.7183 44.2053 89.7523 44.5506C89.6436 45.0003 89.9812 45.7338 90.1767 46.1546C90.5327 46.7304 90.0879 47.5866 90.4874 48.1673C90.4725 48.1922 90.5309 48.2356 90.5458 48.2318L90.6621 48.8204C90.6621 48.8204 90.8158 49.5368 91.0946 49.9524C91.2476 50.1832 91.4142 50.2997 91.5556 50.1903C91.7008 50.0746 91.8345 49.7875 92.0089 49.1999L92.0474 49.206C92.0494 48.8781 92.0156 48.6807 91.8018 48.5022C91.9929 48.4224 91.7617 48.2377 91.8088 48.1519L91.8249 48.1531C91.6272 47.9969 91.8616 47.7321 91.685 47.5758C91.7024 47.582 91.7583 47.5732 91.7733 47.6117C91.7197 47.4826 91.6325 47.3039 91.7455 47.2702C91.6395 46.9537 91.6016 46.488 91.3692 46.3194L91.4027 46.3268C91.2523 46.2326 91.3491 46.1766 91.2608 46.0563C91.2744 46.0476 91.2819 46.0351 91.2868 46.0339C91.1339 45.9298 91.1882 45.6627 91.1111 45.5659L91.1893 45.541L91.1144 45.2852L91.1183 45.3846C90.8948 45.3985 91.2099 45.1609 91.0334 45.0046C91.0244 44.8221 90.5126 44.7396 90.5831 44.537C90.4663 44.4714 90.7633 44.5815 90.6601 44.4649C90.7693 44.4374 90.7408 44.5132 90.8277 44.4597C90.7506 44.3418 90.9007 44.2249 90.7912 44.0835L90.8744 44.0573C90.6729 43.8861 90.9086 43.6474 90.7284 43.5396C90.6151 43.341 90.9591 43.3443 90.744 43.1608L90.8432 43.0513C90.8443 42.9507 90.6854 43.0118 90.7201 42.8975C90.7971 42.8887 90.7522 42.7522 90.8379 42.7992C90.9046 42.5396 90.5728 42.3537 90.7052 41.9984C90.5474 41.9588 90.5994 41.7874 90.4814 41.759C90.5447 41.7378 90.4275 41.4399 90.6028 41.5911C90.6165 41.6035 90.6178 41.6296 90.5979 41.6346L90.6886 41.6382C90.815 41.4269 90.5329 41.3342 90.524 41.1516C90.5067 41.2088 90.5291 41.277 90.4571 41.2424L90.4357 41.0735L90.514 41.0908L90.5037 40.8399L90.4218 40.8922C90.4428 40.7655 90.5867 40.687 90.4338 40.5829C90.3481 40.5358 90.3372 40.7234 90.2848 40.5993C90.3107 40.4291 90.3501 40.1657 90.3349 39.9584C90.2393 39.9982 90.2306 39.9424 90.197 39.8927L90.2801 39.8665C90.111 39.6767 90.4551 39.7433 90.3108 39.5473L90.3753 39.5522L90.1816 39.5375C89.9678 39.3801 90.3404 39.392 90.0557 39.226C90.0869 39.3079 89.8708 39.3094 89.8843 39.1952L89.9762 39.2037C89.9463 39.1479 89.9066 39.1368 89.9115 39.0933C89.9649 39.1168 90.0357 39.0832 90.0045 39.0013L90.1238 39.0346L89.9324 38.9032C89.9967 38.7603 89.8226 38.5718 89.9268 38.4822C89.9268 38.4822 89.923 38.404 89.8968 38.3208C89.8731 38.2476 89.8283 38.1744 89.7575 38.1658C89.8544 38.1942 89.8368 38.0402 89.9449 38.05C89.8343 38.0092 89.6999 37.8318 89.7681 37.7249L89.7818 37.7373C89.7851 37.4144 89.4918 37.2769 89.5262 36.9726C89.4318 37.0174 89.4391 36.8572 89.3262 36.9331C89.1147 36.7011 89.4285 36.353 89.0062 36.3747C88.9452 36.258 89.052 36.1995 89.0494 36.1262L89.0817 36.1498C88.9783 35.9276 88.9509 35.8606 88.906 35.6818C88.84 35.6086 88.6551 35.6498 88.6499 35.4822C88.7356 35.5081 88.7057 35.4523 88.6858 35.394C88.7094 35.425 88.7367 35.4287 88.7614 35.338C88.7341 35.3343 88.7155 35.3231 88.7018 35.3107C88.7068 35.3095 88.7105 35.3033 88.7204 35.3008C88.6669 35.2139 88.6458 35.235 88.6533 35.2859C88.6434 35.2884 88.6298 35.2972 88.6136 35.317C88.6756 35.1853 88.5176 35.0402 88.6418 34.9879C88.5234 34.7061 88.3282 34.5387 88.2025 34.3116C88.2595 34.2656 88.3329 34.3052 88.3801 34.3673L88.3017 34.2022C88.3948 34.1735 88.3862 34.2865 88.4186 34.3312C88.5027 34.0777 88.1399 33.9578 88.2004 33.6733L88.1146 33.6473L88.1208 33.6299C88.0823 33.6449 88.014 33.604 87.9903 33.573C88.0598 33.5133 88.1766 33.5156 88.1317 33.4001C88.1812 33.2821 88.0097 33.1457 87.9288 33.034C87.9363 33.1061 87.8866 33.0974 87.8494 33.0751C87.8294 33.0168 87.8989 32.9571 87.8479 32.9224L87.9547 32.885C87.8628 32.9397 87.798 32.766 87.7483 32.7573C87.8178 32.6976 87.8453 32.828 87.9124 32.8217C87.8263 32.5846 87.8725 32.705 87.7864 32.4679C87.6658 32.3662 87.6896 32.5239 87.5766 32.4943C87.5181 32.3875 87.4124 32.3032 87.4333 32.1554L87.3502 32.2238C87.2084 32.0377 87.1809 31.9074 87.2328 31.7359C85.9606 30.4137 86.0666 31.7387 86.0666 31.7387C86.0353 32.433 86.4107 32.666 86.7171 33.3809Z" fill="#A2D4FD"/>
<path d="M46.1533 87.7402L46.3404 88.1268C46.3528 88.1131 46.3116 88.0124 46.1533 87.7402Z" fill="#A2D4FD"/>
<path d="M74.2682 56.7745C74.233 56.7833 74.199 56.7972 74.1687 56.8048C74.2393 56.7871 74.2645 56.7808 74.2682 56.7745Z" fill="#A2D4FD"/>
<path d="M58.9847 93.5165C58.9747 93.519 58.9697 93.5202 58.9647 93.5215C58.931 93.5353 58.8923 93.5503 58.8636 93.5628L58.9847 93.5165Z" fill="#A2D4FD"/>
<path d="M42.4719 83.7873C43.7881 86.3974 44.6894 88.0082 45.6392 89.6227C45.8732 90.0285 46.1209 90.4256 46.3785 90.8413C46.5191 91.0647 46.6038 91.2123 46.7146 91.4221C46.8229 91.6219 46.9238 91.8341 47.0309 92.0712C47.2551 92.5428 47.462 93.0927 47.8714 93.7343C48.0668 94.0495 48.3541 94.3943 48.7135 94.6894C49.0765 94.9994 49.5574 95.2112 50.0357 95.3285C50.9774 95.5459 51.7771 95.4504 52.5581 95.3438C53.3366 95.2273 54.0816 95.04 54.8128 94.8403C56.2678 94.4323 57.6531 93.9361 58.9628 93.5171C59.262 93.3838 59.6294 93.2492 60.0279 93.1332C60.4252 93.0122 60.8535 92.9098 61.3265 92.7961C62.2539 92.5788 63.2074 92.3391 63.956 92.0823L64.5706 92.0069C65.0833 91.82 65.6916 91.6354 66.2292 91.5266L66.2007 91.5602C66.9641 91.2785 67.8555 91.0649 68.2292 90.9129L68.2056 90.9452L69.1466 90.6559L68.9927 90.7368C70.3247 90.2594 71.7126 89.8154 72.9428 89.4375L72.8099 89.3706C75.4529 88.6058 76.324 88.0594 78.6889 87.3223L78.6666 87.3596C81.4902 85.9897 83.3466 85.7289 86.2109 84.2062C85.8572 84.3955 86.391 84.1873 86.3687 84.2246C87.7104 83.5969 89.144 82.9989 89.0941 82.8002C90.0933 82.4065 89.9308 82.5371 90.0898 82.5605C90.0537 82.4798 90.9051 82.1073 91.6896 81.8045L91.3409 81.9714L93.5864 81.0953L93.0809 81.101C94.2975 80.7106 93.4685 81.1514 94.567 80.7537L94.5135 80.6246C95.3527 80.3925 96.0617 80.2724 96.7594 80.1075C97.4572 79.9215 98.1736 79.7889 99.0521 79.1879C99.1587 79.0872 99.2679 78.9964 99.3721 78.8857C99.4688 78.7663 99.5804 78.6432 99.6535 78.514C99.8122 78.2629 99.926 77.9808 99.9977 77.6988C100.145 77.1286 100.114 76.5871 100.064 76.0929C100.004 75.6012 99.9049 75.1455 99.8298 74.7209C99.7985 74.5123 99.7622 74.3049 99.752 74.1174L99.7027 73.4381C99.5785 71.6002 99.3587 69.76 99.0844 67.9546C98.5331 64.3338 97.7523 60.8289 96.9978 57.576L97.0198 57.2643C97.1363 57.0977 96.2997 55.5551 96.3601 55.2706L96.0673 54.5469C96.0285 54.3296 95.9162 53.8827 96.0694 54.2402C95.8598 53.5537 95.8313 53.545 95.622 53.0696L95.467 52.306C95.2587 51.6667 95.1187 50.9838 94.6793 50.2442C94.5698 50.0606 94.4218 49.8707 94.2365 49.7008C94.04 49.5285 93.7964 49.3785 93.5231 49.2994C92.9702 49.1374 92.4575 49.2822 92.0963 49.4205C90.9158 49.8915 89.6247 50.2584 88.1872 50.7782C87.7478 50.9203 87.2599 51.1011 86.7473 51.3514C86.5128 51.4684 86.2695 51.5929 86.0163 51.72C85.7706 51.8345 85.5211 51.9553 85.2592 52.0687C84.2141 52.5321 83.0286 52.9621 81.8083 53.3587C80.588 53.7552 79.3317 54.1345 78.1599 54.5347C77.0054 54.9411 75.9576 55.2467 75.0215 55.4715C72.4317 56.1543 69.4824 56.3942 66.5612 57.1867C63.6735 57.9866 60.8831 59.0472 58.3622 60.1931C58.1884 60.2368 57.7739 60.4572 57.7826 60.4708C56.2111 61.0877 54.6372 61.6735 53.0519 62.1934C53.0519 62.1934 52.6906 62.3107 52.0935 62.4978C51.7956 62.5938 51.4356 62.6949 51.0271 62.8134C50.651 62.9343 50.2623 62.9845 49.7284 63.066C49.4701 63.1098 49.1821 63.1611 48.8866 63.2459C48.6334 63.3307 48.3739 63.4118 48.1107 63.4991C47.8476 63.5864 47.5844 63.6736 47.3212 63.7609L47.1213 63.827C47.0469 63.8457 46.9115 63.8956 46.8247 63.9491L46.4499 64.1595C45.4571 64.7259 44.5401 65.3419 43.7485 65.8683C42.1788 66.9334 41.0557 67.5696 41.4147 67.5902C41.5948 67.5924 42.1547 67.4464 43.1836 66.9818C43.6962 66.7526 44.3255 66.4413 45.0838 66.0553C45.4636 65.8647 45.8719 65.6618 46.3224 65.4376C46.5496 65.333 46.7804 65.2222 47.0212 65.1088C47.1354 65.059 47.2546 65.0079 47.3774 64.9506C47.4916 64.9219 47.6071 64.8982 47.7213 64.8694L47.6121 64.9391C47.9424 64.8455 48.2627 64.7545 48.5631 64.6684C48.7158 64.6247 48.8635 64.5823 49.0063 64.5411L49.2223 64.4762L49.4061 64.43C49.9014 64.3213 50.4504 64.2995 51.0128 64.1634C52.0643 63.8726 52.9072 63.5709 53.8058 63.1761C54.1661 63.2861 55.9844 62.433 56.6151 62.2533L56.5617 62.2931C58.0982 61.5372 59.8699 61.1288 61.3345 60.4015C61.2811 60.4413 61.2713 60.5072 60.9212 60.648C62.0135 60.1833 63.5105 59.5641 63.6372 59.6483C64.9468 59.1449 66.5506 58.5727 68.0193 58.1771C69.5041 57.7826 70.9158 57.4964 71.7911 57.2394L71.6732 57.2954C72.6713 56.9811 72.993 57.0428 74.1253 56.7581C74.1899 56.763 74.2718 56.753 74.2631 56.7604C74.8106 56.5858 75.6238 56.4183 76.4134 56.2198C77.1944 56.0288 77.9665 55.8029 78.3849 55.6397L78.4632 55.6992L80.6034 55.0344L79.794 55.259C80.0097 54.9619 81.4676 54.9227 82.9993 54.2737C84.4841 53.8159 85.7942 52.7684 87.214 52.0947C87.8369 51.6741 86.7005 52.53 87.6647 51.9761C87.7443 52.0617 87.2354 52.2636 87.5259 52.2222C88.4816 51.7179 89.2018 51.6636 90.4741 51.18L90.555 51.2495C90.9708 51.0763 91.3842 50.9354 91.7839 50.8032C92.1749 50.6785 92.628 50.5065 92.8565 50.4913C93.121 50.4723 93.2465 50.5305 93.397 50.6881C93.5462 50.8406 93.6857 51.0801 93.8275 51.3085C94.1651 52.0842 94.1842 52.4543 94.2418 52.7672C94.2906 53.0875 94.3594 53.4029 94.7344 54.2854L94.8422 55.0292C95.0605 55.8138 95.1521 55.5479 95.352 56.4269C95.265 56.396 95.6006 57.5419 95.3925 57.0503C95.8261 59.048 96.6286 61.0216 96.955 63.7063C97.219 64.2524 97.3686 65.6034 97.5505 66.0117C97.5071 66.0913 97.9515 68.6988 97.5893 67.2164C97.5569 67.0872 97.5218 66.8637 97.5504 66.8724L97.4347 66.7061C97.5087 68.2398 97.9276 69.4439 98.0501 70.9602C98.0321 70.5106 97.9667 69.9146 98.0654 70.3069C98.1045 70.7776 98.1573 71.2395 98.1914 71.7114L98.0929 71.4246C98.1361 72.1213 98.1792 72.8179 98.2013 73.5146L98.2754 73.2214C98.286 73.7468 98.2392 74.0437 98.2547 74.5044C98.269 74.9179 98.3502 75.3252 98.5049 75.8565C98.6596 76.3456 98.4714 74.904 98.6727 75.9358C98.7518 76.5865 98.7441 77.354 98.3709 77.8016C98.2134 77.9943 97.897 78.2058 97.5383 78.3752C97.1747 78.5458 96.7737 78.6942 96.3727 78.8214C96.5529 78.8658 96.1308 79.0142 95.6727 79.1663L95.5969 79.0956C94.7255 79.4097 94.5355 79.41 94.3554 79.4078C94.261 79.4104 94.1753 79.4055 93.9853 79.448C93.809 79.4818 93.4788 79.5964 93.0705 79.7783L93.2044 79.6601L92.8062 80.0084C91.2908 80.7643 91.8911 80.1487 90.2207 81.0439C90.9108 80.7648 90.6157 81.103 89.7492 81.3947L89.9353 81.2318C89.4686 81.4336 89.3284 81.527 89.0068 81.6342C89.2687 81.4786 89.1097 81.4552 88.4233 81.7492L88.8476 81.463L87.5979 82.1415C86.5477 82.4795 85.0373 83.2763 84.5828 83.3378C84.5828 83.3378 82.4292 84.1802 81.9875 84.5024C82.3883 84.2485 81.1929 84.7022 81.4957 84.4782C80.9769 84.7882 79.3584 85.5119 78.6594 85.6718L78.7823 85.6145C76.3008 86.4548 74.629 87.3028 72.3584 87.9318C72.4913 87.9987 71.297 88.3306 71.6274 88.3637C69.3509 89.2423 67.3156 89.4213 66.5812 90.0495C65.5223 90.3738 65.2912 90.3157 64.7313 90.4406L64.9783 90.3521C62.9845 90.9273 62.3973 91.0697 60.8975 91.4256C60.1663 91.6464 60.0548 91.854 58.7139 92.2122C59.1223 92.0092 58.581 92.1875 58.0869 92.3434C58.4023 92.2325 58.4879 92.174 57.8249 92.3301C57.743 92.3824 57.604 92.4384 57.4749 92.492C57.4687 92.4883 57.4376 92.4908 57.4513 92.4821C56.6369 92.7713 56.7897 92.7488 57.1733 92.6365C57.1572 92.6564 57.1944 92.6576 57.3161 92.6375C56.4346 92.8275 54.9438 93.3871 54.802 93.2854C53.578 93.646 52.5239 93.9268 51.5318 94.0337C51.0351 94.0741 50.5669 94.0809 50.1494 93.9536C49.7319 93.8262 49.3665 93.5696 49.0766 93.1726C49.0129 92.9404 49.2929 93.3399 49.7031 93.6064C49.3761 93.3771 49.1062 93.0173 48.8746 92.6003C48.9628 92.5729 49.3152 93.2815 49.6197 93.4848C49.1384 92.9775 48.7834 92.1533 48.314 91.2523C48.1944 91.0289 48.0687 90.8018 47.9318 90.5722C47.7874 90.3551 47.6468 90.1317 47.5012 89.9096C47.22 89.484 46.9449 89.041 46.6996 88.5694L46.4036 88.232L46.3488 88.119C46.319 88.1476 46.0217 87.763 45.85 87.5C45.7688 87.1983 46.025 87.419 45.486 86.5143C45.1373 85.7572 44.2873 84.4767 43.7471 83.5248C44.0061 84.0511 43.8792 83.9035 43.7373 83.6962C43.4933 83.2296 43.4308 82.9179 43.2167 82.5705L43.2936 82.4772C43.2889 82.7107 42.5891 81.2921 42.4697 81.1321C42.4196 80.8279 42.8804 81.8419 42.9985 81.9337C42.0919 80.0285 42.5291 80.9904 41.6795 79.0603C41.1678 78.0538 41.6587 79.2926 41.3576 78.8298C40.9589 77.9162 40.5268 77.0375 40.2173 75.9326L40.2427 76.3064C39.5461 74.5649 39.2454 73.4736 38.9556 72.237C38.6477 71.4116 38.3413 70.6966 38.2001 70.0299C38.1351 69.7083 38.1346 69.3494 38.3628 69.1231C38.5761 68.9005 38.8504 68.7734 39.0813 68.6626C40.032 68.2229 40.6625 67.8955 41.0434 67.6255C41.8152 67.1041 41.7045 67.021 41.208 67.167C40.725 67.3042 39.9008 67.5959 39.1087 67.8267C38.9076 67.8879 38.7127 67.9527 38.5067 68.0362C38.3279 68.1022 38.0362 68.2442 37.8415 68.4146C37.6343 68.5776 37.5103 68.7566 37.436 68.8809C37.3753 69.0176 37.3406 69.0896 37.3406 69.0896C37.2663 69.235 37.2516 69.4077 37.2171 69.5642C37.2024 69.7158 37.2013 69.8586 37.2065 70.0051C37.2267 70.2324 37.253 70.4422 37.288 70.6235C37.3556 70.9972 37.4454 71.3126 37.534 71.6229C37.7087 72.2337 37.8796 72.7874 38.0492 73.3361C38.3909 74.4223 38.7227 75.4689 39.1364 76.5264C39.9465 78.6565 40.9342 80.8423 42.4719 83.7873Z" fill="#A2D4FD"/>
<path d="M75.1904 67.7578L75.2109 67.796C75.207 67.7807 75.1968 67.7616 75.1904 67.7578Z" fill="#A2D4FD"/>
<path d="M75.4914 69.0176C75.6019 69.0374 75.6878 69.2111 75.7622 69.1079C75.8144 69.1054 75.8528 69.0482 75.8913 69.0121C75.8687 68.8594 75.9546 68.9909 75.9383 68.863L75.9744 68.9437C75.9681 68.8978 75.9718 68.8704 75.9979 68.9114L76.0042 68.9362C75.9979 68.8692 76.0277 68.9039 76.0239 68.8679L76.0302 68.8927L76.0426 68.879L76.0513 68.9138C76.0537 68.8393 76.0773 68.8281 76.1096 68.8516L76.0747 68.7548C76.1568 68.8503 76.1093 68.6405 76.1915 68.7571L76.1977 68.782C76.17 68.5038 76.3358 68.9321 76.3118 68.6688C76.3143 68.6999 76.3293 68.7172 76.3355 68.742C76.3528 68.706 76.3739 68.6849 76.3141 68.4887C76.3339 68.4837 76.3489 68.5433 76.3739 68.6215C76.3477 68.5384 76.3526 68.4949 76.3662 68.4862L76.37 68.5222L76.4022 68.4824L76.3412 68.3235C76.3772 68.362 76.406 68.5184 76.4159 68.4737L76.3722 68.3421C76.4083 68.3594 76.4893 68.5556 76.549 68.6461C76.6856 68.6646 76.7062 68.2845 76.894 68.4855L76.9302 68.5873C76.9776 68.7337 76.8939 68.3588 76.9388 68.4953L76.9312 68.4233C76.9424 68.4469 76.9598 68.4742 76.9636 68.5102C76.9798 68.5114 76.9686 68.4879 76.9673 68.4407L77.0096 68.5251C77.0767 68.5821 77.0653 68.3896 77.1237 68.4119C77.2394 68.5782 77.2988 68.3732 77.3321 68.2539C77.3542 68.0055 77.6455 68.5553 77.66 68.277C77.67 68.2957 77.6637 68.2497 77.6587 68.2299L77.7519 68.2223C77.7519 68.2223 78.1827 68.1509 77.4895 67.0316L77.482 67.0018C77.4136 66.9398 77.3738 66.9287 77.3964 67.1025C77.3316 66.9076 77.3517 67.0927 77.3206 67.0318L77.3168 67.0169C77.3357 67.1759 77.2211 66.909 77.2362 67.0531C77.2324 67.0382 77.2187 66.9835 77.2224 66.9773C77.2088 67.0071 77.1964 67.0631 77.1615 66.9451C77.1255 66.9911 77.0386 66.9602 77.0649 67.1489L77.0562 67.1142C77.0774 67.2408 77.0413 67.139 77.0377 67.2086C77.0339 67.1937 77.0264 67.185 77.0252 67.18C77.0465 67.3067 76.9768 67.2186 76.9744 67.272L76.9495 67.1938L76.9197 67.2224L76.9383 67.2335C76.997 67.4458 76.8699 67.1082 76.8862 67.2572C76.8502 67.2399 76.9737 67.7104 76.9128 67.6148C76.9328 67.7154 76.8716 67.451 76.8766 67.5342C76.8442 67.4262 76.8641 67.4634 76.8317 67.3765C76.8306 67.4349 76.7645 67.2772 76.7683 67.3555L76.7422 67.2723C76.7622 67.4362 76.6501 67.1793 76.6777 67.3308C76.6716 67.4115 76.5792 67.0862 76.5968 67.2613L76.5483 67.1521C76.5284 67.136 76.5845 67.2961 76.5509 67.2465C76.5272 67.1732 76.5111 67.1931 76.4985 67.1223C76.4301 67.0181 76.4814 67.3062 76.3731 67.1275C76.4093 67.2715 76.3583 67.1946 76.3858 67.3038C76.3646 67.2405 76.3336 67.3064 76.3198 67.1673C76.3173 67.1574 76.3222 67.1561 76.3285 67.1809L76.3072 67.0965C76.2325 66.9463 76.285 67.1971 76.2552 67.1835C76.2726 67.2108 76.2801 67.1984 76.2901 67.2592L76.2627 67.2555L76.2453 67.186L76.1955 67.1563L76.228 67.2432C76.1969 67.2035 76.1445 67.0582 76.1608 67.1861C76.1733 67.2569 76.2156 67.2991 76.2032 67.3339C76.1634 67.2805 76.0963 67.2024 76.0602 67.185C76.0951 67.2819 76.0839 67.2794 76.0852 67.3055L76.059 67.2223C76.0654 67.3527 75.9868 67.0398 75.9856 67.1404L75.9707 67.0808L76.0156 67.2596C76.0394 67.4384 75.9458 67.0871 75.9859 67.3304C75.9921 67.313 76.0482 67.5154 76.0246 67.4844L76.0034 67.4C75.9984 67.4223 76.0072 67.4571 75.9972 67.4385C75.9909 67.3925 75.9623 67.3205 75.9561 67.3379L75.9299 67.2336L75.9537 67.3913C75.9064 67.3082 75.9152 67.4274 75.8716 67.3169C75.8716 67.3169 75.8132 67.2735 75.8457 67.4026C75.8306 67.3219 75.7983 67.2984 75.7746 67.204C75.7921 67.2947 75.7873 67.3804 75.7424 67.286L75.7399 67.2761C75.6665 67.1942 75.7054 67.4326 75.6307 67.3247C75.6656 67.4215 75.627 67.3731 75.6694 67.4998C75.6671 67.6376 75.5151 67.264 75.62 67.66C75.6051 67.6849 75.5677 67.5781 75.5528 67.5608L75.5527 67.5397C75.5267 67.5832 75.518 67.5906 75.4907 67.5869C75.4908 67.6292 75.5469 67.8104 75.5059 67.7732C75.4921 67.6975 75.4859 67.7149 75.476 67.7173C75.4784 67.7062 75.471 67.6764 75.4436 67.6305C75.4498 67.6553 75.4523 67.6652 75.4511 67.6814C75.4498 67.6764 75.4486 67.6714 75.4461 67.6615C75.4374 67.6901 75.4486 67.7137 75.4611 67.7211C75.4636 67.731 75.4673 67.7459 75.4773 67.7645C75.4337 67.6752 75.44 67.7845 75.3977 67.6578C75.3604 67.6989 75.3743 67.8379 75.352 67.8964C75.3259 67.8343 75.3158 67.7734 75.3195 67.7461L75.3009 67.7772C75.2723 67.6841 75.2971 67.7201 75.3021 67.6977C75.2249 67.5587 75.2862 67.8654 75.2078 67.7425L75.2215 67.8183L75.214 67.8096C75.224 67.8493 75.2328 67.9052 75.2303 67.9164C75.2004 67.8394 75.173 67.7302 75.1556 67.7451C75.1157 67.6706 75.1259 67.7948 75.1222 67.8433C75.1359 67.8557 75.1471 67.9003 75.1546 67.9301C75.1459 67.9376 75.1148 67.8557 75.1198 67.8967L75.0873 67.7887C75.1235 67.8904 75.1012 67.9066 75.1074 67.9526C75.0775 67.8756 75.0999 67.8805 75.0837 67.816C75.0514 67.8347 75.065 67.8259 75.034 67.8496C75.0403 67.9377 75.0702 67.9514 75.0889 68.047C75.079 68.0706 75.0841 68.1538 75.048 68.0942L75.0817 68.1861C75.0718 68.273 75.0495 68.2681 74.9997 68.175C75.0083 69.0282 75.2818 69.2551 75.2818 69.2551C75.4397 69.4213 75.4033 69.1295 75.4914 69.0176Z" fill="#A2D4FD"/>
<path d="M82.9011 66.3994L82.9305 66.43C82.9215 66.416 82.9075 66.4032 82.9011 66.3994Z" fill="#A2D4FD"/>
<path d="M83.9233 67.3994L83.9313 67.4086L83.9233 67.3994Z" fill="#A2D4FD"/>
<path d="M83.5794 67.5013C83.6812 67.4863 83.8143 67.6376 83.8427 67.5196C83.8874 67.5084 83.9034 67.4463 83.9245 67.404C83.8585 67.2675 83.9691 67.3717 83.923 67.2513L83.9765 67.317C83.9603 67.2736 83.9528 67.2438 83.9827 67.2785L83.9939 67.3021C83.9677 67.24 84.0013 67.2685 83.9926 67.2338L84.0038 67.2574L84.01 67.24L84.0286 67.2722C84.0111 67.2027 84.0285 67.1878 84.0633 67.2001L84.0098 67.1133C84.108 67.1889 84.0072 66.9978 84.1166 67.097L84.1278 67.1206C84.0306 66.8599 84.2906 67.2433 84.2009 66.9913C84.2133 67.0199 84.2283 67.0372 84.2444 67.0596C84.2506 67.0211 84.2655 66.9962 84.1622 66.8163C84.1771 66.8125 84.2057 66.8634 84.2443 66.9329C84.1982 66.8547 84.1932 66.8137 84.2068 66.805L84.2206 66.8385L84.2404 66.7913L84.1507 66.6449C84.1905 66.6771 84.2541 66.8248 84.2528 66.7776L84.1855 66.6573C84.2253 66.6684 84.3385 66.8458 84.4107 66.9227C84.5324 66.9238 84.4859 66.5501 84.6886 66.7261L84.7384 66.8192C84.8044 66.9557 84.6673 66.5995 84.7308 66.7261L84.7134 66.6566C84.7295 66.6789 84.7457 66.7012 84.7545 66.736C84.7656 66.7385 84.7594 66.7136 84.7432 66.6702L84.7955 66.7521C84.8663 66.8029 84.8251 66.6179 84.8822 66.6352C85.0116 66.7928 85.0337 66.5866 85.0559 66.4649C85.0568 66.2165 85.3667 66.7563 85.3552 66.4794C85.3652 66.498 85.3539 66.4533 85.3489 66.4334L85.4321 66.4283C85.4321 66.4283 85.5277 66.4096 85.5412 66.2531C85.5547 66.0966 85.4996 65.7936 85.14 65.2452L85.1312 65.2104C85.0579 65.1496 85.0194 65.1435 85.0407 65.3124C84.9659 65.12 84.9923 65.3087 84.9611 65.2479L84.9574 65.233C84.9812 65.3907 84.8517 65.1276 84.873 65.2753C84.8692 65.2604 84.8505 65.207 84.8543 65.2008C84.8419 65.2356 84.8283 65.2866 84.7847 65.1761C84.7438 65.2233 84.6531 65.1986 84.6955 65.3886L84.688 65.3588C84.7205 65.4879 84.6732 65.3836 84.6758 65.4569C84.667 65.4433 84.6645 65.4333 84.6633 65.4284C84.6895 65.5538 84.6162 65.4719 84.62 65.529L84.5913 65.457L84.5578 65.4918L84.5765 65.503C84.655 65.7103 84.4943 65.3864 84.5206 65.5329C84.4858 65.5205 84.6479 65.9761 84.5832 65.8867C84.6131 65.9848 84.5271 65.7266 84.5421 65.8073C84.4948 65.703 84.5246 65.7378 84.4823 65.6534C84.4861 65.7105 84.4064 65.5616 84.4102 65.6398L84.3741 65.5591C84.4091 65.7193 84.2697 65.4798 84.3121 65.6275C84.311 65.707 84.1801 65.3967 84.2238 65.5705L84.1604 65.465C84.1367 65.4551 84.2115 65.6053 84.1729 65.5569C84.1393 65.4862 84.1294 65.5098 84.1069 65.4415C84.0211 65.3522 84.1109 65.6253 83.9766 65.469C84.0326 65.608 83.968 65.5398 84.0091 65.6404C83.9792 65.5845 83.9594 65.6528 83.9195 65.515C83.917 65.5051 83.922 65.5039 83.9332 65.5274L83.897 65.4468C83.795 65.314 83.8922 65.5536 83.8525 65.5424C83.8736 65.5635 83.881 65.5511 83.901 65.6094L83.8699 65.612L83.8425 65.5449L83.7854 65.5276L83.8314 65.6058C83.7916 65.5736 83.7157 65.4395 83.7519 65.5625C83.7743 65.6307 83.8253 65.6654 83.8229 65.6977C83.7694 65.6531 83.6898 65.5886 83.6513 65.5825C83.7048 65.6693 83.6949 65.6718 83.6949 65.6929L83.6538 65.6135C83.6801 65.7389 83.5481 65.4447 83.5643 65.5515L83.5394 65.4944L83.6191 65.6645C83.6777 65.8345 83.5121 65.5119 83.6006 65.7378C83.6055 65.7154 83.7014 65.9078 83.6679 65.8793L83.628 65.8048C83.628 65.8259 83.6418 65.8594 83.6281 65.847C83.6119 65.8036 83.5683 65.7353 83.5634 65.7577L83.5173 65.6584L83.5709 65.8086C83.5062 65.7404 83.5349 65.8546 83.4677 65.7553C83.4677 65.7553 83.3969 65.7256 83.4592 65.8472C83.4243 65.7715 83.3883 65.7542 83.3459 65.6698C83.3833 65.7554 83.3933 65.8374 83.3311 65.758L83.3286 65.7481C83.2342 65.6873 83.3276 65.912 83.2219 65.8277C83.2755 65.9146 83.2295 65.8786 83.3041 65.9865C83.3329 66.1219 83.089 65.803 83.2944 66.1579C83.2907 66.1853 83.2248 66.091 83.1999 66.0761L83.1949 66.0562C83.1813 66.1072 83.1726 66.1146 83.1429 66.1221C83.1528 66.1619 83.2524 66.3269 83.2089 66.3009C83.1765 66.2351 83.1753 66.2512 83.1654 66.2537C83.1616 66.2388 83.1504 66.2153 83.1106 66.183C83.1206 66.2016 83.1293 66.2153 83.1331 66.2302C83.1318 66.2252 83.1256 66.2215 83.1243 66.2165C83.1269 66.2476 83.1418 66.265 83.1542 66.2724C83.1617 66.2811 83.1704 66.2947 83.1853 66.3121C83.1194 66.2389 83.1506 66.3419 83.0759 66.234C83.0524 66.2874 83.0998 66.4128 83.0949 66.4774C83.0551 66.424 83.0264 66.3732 83.0239 66.3421L83.0165 66.3757C82.9593 66.295 82.9978 66.3223 82.9928 66.3024C82.8759 66.1945 83.0241 66.4688 82.9109 66.3758L82.9483 66.4403L82.9408 66.4316C82.9645 66.4627 82.9881 66.5148 82.9919 66.5297C82.9384 66.4639 82.8786 66.3734 82.8662 66.387C82.8041 66.3287 82.8539 66.4429 82.8614 66.4938C82.8788 66.5 82.9037 66.536 82.9162 66.5646C82.9075 66.572 82.8552 66.5112 82.8739 66.5435L82.8092 66.4542C82.8727 66.5385 82.8578 66.5634 82.8827 66.5994C82.8292 66.5336 82.8503 66.5336 82.8154 66.479C82.7919 66.5113 82.803 66.4927 82.7795 66.525C82.8156 66.6057 82.8479 66.6081 82.8965 66.6962C82.8928 66.7236 82.9276 66.7993 82.8692 66.7559L82.9351 66.8291C82.9564 66.9135 82.9353 66.9135 82.8557 66.849C83.009 67.2487 83.1757 67.4708 83.2976 67.5986C83.4194 67.7263 83.5015 67.7585 83.5015 67.7585C83.6854 67.8812 83.5423 67.6268 83.5794 67.5013Z" fill="#A2D4FD"/>
<path d="M101.198 3.21352L101.295 3.17307C101.276 3.16176 101.246 3.16936 101.198 3.21352Z" fill="#A2D4FD"/>
<path d="M97.7791 12.5697C97.7765 12.5595 97.774 12.5493 97.7714 12.5391C97.7714 12.5607 97.7727 12.5658 97.7791 12.5697Z" fill="#A2D4FD"/>
<path d="M102.991 3.37009L102.989 3.36501L102.974 3.39044L102.991 3.37009Z" fill="#A2D4FD"/>
<path d="M101.194 4.96212C101.485 4.75682 101.713 4.56774 101.915 4.40602C102.102 4.24805 102.268 4.11122 102.435 3.97438C102.516 3.901 102.593 3.82887 102.675 3.75548C102.743 3.69081 102.874 3.55775 102.858 3.57765C102.893 3.55276 102.871 3.56893 102.881 3.52421C102.892 3.52668 102.893 3.51053 102.911 3.47449C102.924 3.44467 102.963 3.34526 102.989 3.3651C103.071 3.20727 103.077 3.25321 103.071 3.29172C103.066 3.33519 103.057 3.36377 103.113 3.33389C103.082 3.37864 103.054 3.41221 103.026 3.45074C103.067 3.42461 103.092 3.43948 103.051 3.48673L103.028 3.49794C103.09 3.49289 103.054 3.53888 103.089 3.57237L103.062 3.57365C103.067 3.5724 103.079 3.68043 103.092 3.75617L103.051 3.71897C103.159 4.0616 103.227 4.39807 103.264 4.68988L103.358 4.64504C103.37 4.96421 103.446 5.16157 103.513 5.34529C103.58 5.52901 103.64 5.70404 103.656 6.01699L103.63 6.01826C103.863 6.33961 103.92 6.62643 103.996 6.92936C104.071 7.22732 104.171 7.54016 104.491 7.80799C104.412 7.74351 104.47 7.87136 104.44 7.87885C104.663 8.17662 104.922 8.47061 105.079 8.34124C105.234 8.53478 105.155 8.53861 105.116 8.61193C105.209 8.58325 105.293 8.62536 105.358 8.69358L105.301 8.67627C105.362 8.72959 105.424 8.78788 105.484 8.85735C105.543 8.84237 105.602 8.82242 105.659 8.79751C105.705 8.93902 105.425 8.83507 105.553 8.94543L105.75 8.97001C105.851 9.18225 105.544 9.18017 105.379 9.15307L105.381 9.18411C105.376 9.18536 105.362 9.17296 105.35 9.16553C105.325 9.15066 105.308 9.14447 105.284 9.13457C105.244 9.12344 105.202 9.1235 105.156 9.12977C105.076 9.14478 105.02 9.17466 104.878 9.19968C104.563 9.22618 104.224 9.26389 103.897 9.33015C103.235 9.44901 102.575 9.6784 101.977 10.0083L101.846 9.97246C101.701 9.87703 101.614 10.4745 101.483 10.4176C101.452 10.4834 101.425 10.5431 101.404 10.6064C101.345 10.6264 101.256 10.6911 101.286 10.5991C101.171 10.7285 101.185 10.7458 101.147 10.8663L100.965 10.9386C100.745 11.1575 100.608 11.3663 100.464 11.5503C100.353 11.6995 100.074 11.9545 99.8398 12.1348C99.769 12.1685 99.6983 12.2021 99.6251 12.2469C99.5506 12.2867 99.465 12.3452 99.4625 12.3353C99.4191 12.3515 99.3781 12.3776 99.3334 12.41C99.2888 12.4423 99.2305 12.4834 99.1597 12.517C99.1212 12.532 99.0828 12.5469 99.0418 12.552C98.9958 12.5582 99.002 12.5197 98.9821 12.5036C98.9547 12.4577 98.9286 12.3956 98.9136 12.336C98.788 12.2356 99.0218 11.5063 99.2059 10.8317C99.2924 10.4614 99.3266 10.0516 99.2864 9.68152C99.2449 9.30651 99.1476 8.98249 99.0094 8.70573C99.0192 8.661 98.9496 8.57292 98.9309 8.58288L98.6848 7.47788C98.6848 7.47788 98.6311 7.26434 98.5525 6.95148C98.51 6.78263 98.4701 6.66595 98.3903 6.43257C98.318 6.20787 98.1586 5.91002 97.9622 5.71654C97.8042 5.55033 97.6116 5.43509 97.4873 5.38185C97.3618 5.32364 97.2935 5.30386 97.2761 5.31879C97.2724 5.325 97.1992 5.36981 97.2364 5.34989C97.2364 5.34989 97.2116 5.35613 97.1991 5.3487C97.1643 5.33632 97.1295 5.30284 97.0873 5.28178C97.0127 5.23717 96.8935 5.24602 96.7981 5.43368C96.7523 5.5244 96.7587 5.71814 96.8881 5.8968C97.0063 6.073 97.163 6.23424 97.1769 6.39444C97.1969 6.47389 97.2069 6.55585 97.2008 6.63658L97.1636 6.63539C97.1848 6.71981 97.1936 6.81791 97.2186 6.93835C97.2387 7.06003 97.2786 7.19783 97.3036 7.29715C97.3622 7.50945 97.4457 7.69438 97.5751 7.87305C97.3939 7.99252 97.6713 8.361 97.6417 8.51628L97.6231 8.50513C97.8607 8.82027 97.6875 9.28622 97.8965 9.57159C97.8778 9.56044 97.822 9.5692 97.7983 9.49596C97.883 9.72809 97.9679 10.0236 97.8487 10.0535C97.8975 10.3105 97.8817 10.5838 97.8436 10.8943C97.8055 11.226 97.7824 11.5539 97.8485 11.7748L97.8186 11.7401C97.8398 11.8034 97.8523 11.8531 97.8536 11.9003C97.8525 11.9586 97.8463 12.0183 97.8402 12.0779C97.8217 12.1934 97.7958 12.3214 97.8159 12.5064C97.8011 12.5312 97.7874 12.5611 97.7812 12.5574C97.8636 12.8429 97.8146 13.3832 97.8473 13.7023C97.8747 13.7271 97.9008 13.747 97.9256 13.7618L97.8674 13.8451L97.9507 13.9245C97.9731 13.9505 98.0501 13.9629 98.0961 13.9777C98.1992 14.0099 98.3011 14.037 98.4029 14.0431C98.3321 14.0345 98.26 13.9998 98.1867 13.9813C98.286 13.893 98.3755 13.955 98.5109 14.0107C98.6451 14.0614 98.8476 14.1108 99.0933 13.954C99.3093 13.9103 99.5326 13.6641 99.6888 13.4453C99.8487 13.2203 99.9577 13.0239 100.125 12.9554C100.195 12.769 100.113 13.1802 100.263 12.9577C100.343 13.0433 100.211 13.0869 100.324 13.1166C100.485 12.9177 100.719 12.9434 100.895 12.6985L100.958 12.7618C101.167 12.4138 101.671 12.2765 101.72 11.9684C101.928 11.5993 102.106 11.9083 102.223 11.4933C102.289 11.4821 102.349 11.4671 102.411 11.462C102.529 11.3638 102.38 11.2745 102.536 11.2035C102.582 11.2606 102.721 11.1201 102.701 11.2306C103.002 11.1234 103.207 10.681 103.746 10.7462C103.814 10.5759 104.088 10.6128 104.153 10.496C104.173 10.5543 104.692 10.4555 104.401 10.6186C104.377 10.6298 104.331 10.6361 104.33 10.61L104.305 10.7007C104.459 10.7676 104.588 10.7351 104.725 10.6902C104.798 10.6665 104.85 10.6428 104.951 10.6228C105.087 10.5991 105.23 10.579 105.383 10.5776C105.199 10.5604 104.972 10.5806 105.118 10.5121C105.296 10.5044 105.474 10.4967 105.659 10.4977L105.572 10.5723C105.646 10.5747 105.715 10.5734 105.798 10.5894C105.888 10.6141 105.927 10.5781 106.102 10.7083L107.283 11.499L106.742 11.07C107.063 11.2957 107.396 11.5287 107.736 11.7655C107.749 11.6723 107.77 11.63 107.782 11.553C107.793 11.471 107.801 11.4164 107.802 11.358C107.802 11.2947 107.784 11.204 107.763 11.1407C107.74 11.0675 107.698 10.9669 107.654 10.8937C107.528 10.6877 107.42 10.9313 107.388 10.6755C107.425 10.6345 107.468 10.6183 107.509 10.6132C107.53 10.6132 107.554 10.6231 107.576 10.6281L107.609 10.6516C107.621 10.659 107.631 10.6777 107.623 10.6268C107.597 10.3536 107.561 10.0829 107.507 9.8271C107.396 9.82849 107.368 9.69316 107.3 9.55167L107.405 9.56767C107.242 9.27603 107.264 9.23875 107.311 9.19522C107.348 9.15418 107.404 9.10319 107.179 8.79549L107.282 8.84875C107.179 8.79549 107.082 8.74594 106.975 8.69889C106.713 8.45333 106.706 8.38628 106.694 8.29439C106.673 8.20996 106.628 8.09452 106.295 7.8826C106.491 8.09719 106.192 8.06157 106.052 7.84318C106.088 7.8394 106.112 7.82819 106.156 7.8331C106.06 7.7463 106.019 7.75132 105.986 7.68554C106.065 7.70282 106.099 7.63074 105.999 7.52407L106.144 7.53506L105.849 7.41374C105.795 7.19523 105.528 6.977 105.589 6.84031C105.589 6.84031 105.437 6.42446 105.278 6.37996C105.391 6.43073 105.32 6.18989 105.438 6.2183C105.305 6.15141 105.117 5.8449 105.172 5.68338L105.188 5.70571C105.154 5.21271 104.813 4.80208 104.821 4.30902C104.726 4.35386 104.724 4.09057 104.608 4.17766C104.491 3.94309 104.527 3.70708 104.539 3.52449C104.545 3.46487 104.544 3.26989 104.511 3.16189C104.489 3.03027 104.435 2.94341 104.337 2.91001C104.343 2.53369 104.488 2.35466 104.517 2.11493L104.537 2.19439C104.537 1.81436 104.503 1.65916 104.477 1.51264C104.453 1.37606 104.433 1.25438 104.389 1.10168C104.306 1.00119 104.196 1.21371 104.113 0.88595C104.194 0.892052 104.139 0.800223 104.074 0.689777C104.134 0.759246 104.164 0.751755 104.099 0.556857C104.074 0.5631 104.049 0.548228 104.023 0.528392C104.027 0.522178 104.023 0.507281 104.028 0.506032C103.987 0.468828 103.957 0.434093 103.941 0.432872C103.928 0.441584 103.919 0.449047 103.915 0.455261C103.912 0.482589 103.913 0.44533 103.949 0.504895C103.94 0.512358 103.941 0.538437 103.954 0.588098C103.924 0.490024 103.9 0.501232 103.868 0.498791C103.837 0.501317 103.801 0.50509 103.77 0.507616C103.708 0.512666 103.652 0.500322 103.673 0.373617C103.636 0.372424 103.598 0.371231 103.567 0.373756C103.043 1.08111 102.69 1.69261 102.338 2.1824C102.261 2.17008 102.336 1.98742 102.466 1.79102L102.149 2.20873C102.104 2.1144 102.315 1.92411 102.415 1.77743C102.19 1.92924 101.962 2.26114 101.788 2.51597L101.681 2.68005C101.65 2.7248 101.619 2.76955 101.588 2.8143C101.52 2.90008 101.44 2.97843 101.333 3.03694L101.322 3.16115L101.293 3.17361C101.321 3.19841 101.291 3.31147 101.254 3.37361C101.151 3.36257 101.12 3.23842 100.965 3.39883C100.79 3.45868 100.648 3.75817 100.496 3.92852C100.601 3.86504 100.6 3.92341 100.578 3.98181C100.495 4.05023 100.393 4.02304 100.35 4.10258L100.275 4.01575C100.369 4.07648 100.113 4.27304 100.1 4.32895C100.007 4.2943 100.204 4.17605 100.187 4.10653C99.8357 4.34793 100.018 4.23343 99.6458 4.45374C99.4796 4.6328 99.7341 4.53187 99.6784 4.66731C99.5009 4.78056 99.3459 4.94098 99.0888 4.96864L99.1995 5.03059C98.8545 5.2546 98.6062 5.31702 98.3168 5.30002C96.9505 6.10288 96.8379 6.38992 97.1075 6.51748C97.3648 6.6376 97.9881 6.55481 97.9881 6.55481C98.6189 6.50181 99.1056 6.33723 99.5908 6.08323C100.065 5.82677 100.57 5.48332 101.194 4.96212Z" fill="#A2D4FD"/>
<path d="M6.86174 49.0019L6.86405 48.8633C6.84408 48.8683 6.84163 48.9008 6.86174 49.0019Z" fill="#A2D4FD"/>
<path d="M14.022 55.5756C14.0156 55.5718 14.0042 55.5692 13.9978 55.5654C14.0118 55.5781 14.0169 55.5768 14.022 55.5756Z" fill="#A2D4FD"/>
<path d="M8.14648 48.5889C8.15414 48.5978 8.1618 48.6067 8.16946 48.6156L8.14648 48.5889Z" fill="#A2D4FD"/>
<path d="M8.39533 49.8724C8.08775 48.313 8.44629 48.962 8.29078 48.7635C8.30196 48.766 8.24975 48.7263 8.17761 48.6494C8.14155 48.611 8.15148 48.6085 8.14773 48.5936C7.98729 48.4174 8.02954 48.4385 8.06062 48.4571C8.09791 48.4794 8.12526 48.5042 8.06925 48.4074L8.19615 48.5761C8.15755 48.5066 8.15628 48.4806 8.21351 48.5612L8.23343 48.5984C8.20103 48.5115 8.26323 48.5909 8.25821 48.55L8.27191 48.5835L8.29924 48.5872L8.30426 48.6282C8.31167 48.5946 8.3365 48.5884 8.37004 48.5958C8.38619 48.597 8.39862 48.6044 8.41105 48.6119L8.43094 48.628L8.52788 48.6775L8.53767 48.5695C9.10938 48.8904 9.39109 48.7298 9.92419 48.9601L9.91428 48.9837C10.2892 48.9 10.5613 48.9741 10.8644 49.0247C11.1625 49.0764 11.4967 49.1033 11.8441 48.9103C11.756 48.9589 11.8926 48.9562 11.889 48.9836C12.2254 48.8937 12.5531 48.7902 12.5094 48.5953C12.6894 48.5553 12.6709 48.6286 12.7095 48.6981C12.692 48.6074 12.8621 48.5488 13.0719 48.5014L12.9949 48.5524C13.0893 48.5287 13.1886 48.5037 13.3003 48.465C13.4121 48.4264 13.5387 48.3629 13.633 48.2969C13.5634 48.2722 13.4988 48.2462 13.4329 48.2152C13.7544 48.0869 13.6355 48.3491 13.8662 48.1327L13.7754 48.0235C14.0794 47.8045 14.2894 47.9049 14.3442 48.0178L13.8805 47.6222C13.8494 47.6459 13.8135 47.6708 13.7775 47.6956C13.7502 47.7131 13.6844 47.7455 13.6931 47.738C13.6956 47.7479 13.733 47.8969 13.7432 48.0422C13.7595 48.1912 13.7709 48.3626 13.7836 48.5389C13.8002 48.9202 13.8144 49.3126 13.831 49.6939C13.8931 50.6339 14.2642 51.3537 14.2141 51.9524L14.1198 52.0184C13.9708 52.0558 14.376 52.2813 14.2295 52.3709L14.3067 52.531C14.282 52.5795 14.2548 52.6814 14.2174 52.5957C14.2201 52.7535 14.2412 52.7534 14.296 52.8664L14.2143 53.0453C14.207 53.2055 14.2209 53.3657 14.2497 53.5222C14.2572 53.552 14.2684 53.6178 14.2697 53.6227L14.2809 53.6463L14.3157 53.7009C14.3618 53.7791 14.439 53.897 14.444 53.9802C14.3621 53.9902 14.3671 54.0312 14.3971 54.1926C14.3227 54.2536 14.2283 54.2562 14.0954 54.2104C14.0581 54.2092 14.0047 54.1857 13.9475 54.1473C13.8903 54.1088 13.8505 54.0766 13.7523 54.001C13.4788 53.8163 13.1991 53.6279 12.8984 53.4606C12.3068 53.1236 11.6482 52.8562 10.9615 52.918C10.918 52.892 10.7963 52.9331 10.7951 52.9493C10.3703 52.9188 9.95681 52.9541 9.57561 53.013C9.57561 53.013 9.22671 53.0743 8.82074 53.1816C8.41477 53.289 7.95914 53.4088 7.62267 53.4776C7.28744 53.5513 7.02671 53.6063 7.05179 53.79C7.07063 53.949 7.45366 54.3385 8.57156 54.4587L8.54926 54.496C9.17887 54.4591 9.51906 54.3841 9.85781 54.1564C9.94747 54.3451 10.2912 54.1161 10.4142 54.1855L10.4031 54.2041C10.7121 54.0261 10.9907 54.3574 11.3247 54.2787C11.3073 54.2936 11.2888 54.3458 11.2229 54.3359C11.4477 54.3481 11.7583 54.3861 11.741 54.5066C12.0044 54.5671 12.3063 54.676 12.5822 54.7862C12.7176 54.8419 12.8518 54.8926 12.9724 54.931C13.0357 54.952 13.0929 54.9693 13.1488 54.9817C13.2121 55.0027 13.2929 55.0299 13.3488 55.0423L13.3041 55.0535C13.6184 55.1276 13.6684 55.3262 13.9704 55.4985C13.9841 55.532 14.0065 55.558 14.0028 55.5642C14.1444 55.6026 14.3321 55.7402 14.5074 55.8703C14.6802 55.9906 14.8455 56.1021 14.9151 56.1058L14.9661 56.2249C15.114 56.2881 15.2569 56.3525 15.4098 56.4143L15.2258 56.3128C15.1373 56.0446 15.6535 56.6699 15.9751 56.5837L15.9949 56.5787C16.0316 56.1577 15.5226 55.3089 15.5508 55.1064C15.3977 54.8334 15.7748 55.4302 15.6341 55.1013C15.7683 55.2154 15.7361 55.2974 15.8343 55.3308C15.7321 55.0292 15.9171 55.009 15.7153 54.5423L15.8209 54.5844C15.6429 54.2543 15.5991 54.0172 15.5689 53.7713C15.5526 53.6434 15.5438 53.5242 15.5287 53.4224C15.5199 53.3454 15.5025 53.297 15.4515 53.2411C15.3417 52.8886 15.6884 52.9862 15.4954 52.6176L15.6094 52.4622C15.6229 52.2846 15.4615 52.3569 15.5072 52.1395C15.5892 52.1505 15.5428 51.8401 15.6287 51.9717C15.695 51.4164 15.2622 50.9972 15.3286 50.442C15.1558 50.364 15.1952 50.1006 15.0759 50.0461C15.1256 50.0126 15.0517 49.5929 15.2011 49.8299C15.216 49.8473 15.2161 49.8895 15.1887 49.8858L15.2782 49.9055C15.4207 49.6955 15.1807 49.4337 15.215 49.1083C15.1804 49.2015 15.1855 49.3269 15.127 49.2413L15.1515 48.9395L15.2211 49.0065L15.2726 48.5394L15.1783 48.6054C15.2252 48.3718 15.3828 48.2847 15.2371 47.9992C15.1587 47.8764 15.1294 48.2428 15.0856 47.9845C15.0979 47.8653 15.1101 47.7249 15.1037 47.5523C15.0848 47.3723 15.0758 47.1686 14.9078 46.8782L14.7198 46.5506L14.2007 46.5438C13.9672 46.5392 13.7102 46.609 13.5228 46.7037C13.6284 46.7669 13.4634 46.8453 13.3617 46.9448L13.2982 46.8816C13.1284 47.088 13.1035 47.052 13.0364 47.0372C12.9867 47.0074 12.9109 47.0001 12.8775 47.0771L12.8526 47.02C12.8775 47.0771 12.8987 47.1404 12.9186 47.1988C12.9175 47.2994 12.8616 47.2659 12.8268 47.2324C12.782 47.2014 12.7609 47.1804 12.5971 47.3271C12.7349 47.2872 12.7067 47.5108 12.5042 47.5036L12.5389 47.4104C12.4321 47.4478 12.3949 47.4888 12.3055 47.4902C12.3402 47.4603 12.3427 47.4281 12.3166 47.4082C12.2905 47.3884 12.2122 47.3922 12.1489 47.4134C12.1749 47.3699 12.1861 47.3301 12.232 47.2817C12.1253 47.3613 12.0682 47.4284 11.9814 47.503C11.7503 47.4661 11.4587 47.6292 11.3617 47.5163C11.3617 47.5163 11.2561 47.5164 11.1468 47.5228C11.0338 47.5354 10.9121 47.5554 10.865 47.62C10.9444 47.5367 10.7245 47.5022 10.7902 47.4065C10.6922 47.4998 10.3557 47.5474 10.2302 47.4259L10.255 47.4196C9.79027 47.2514 9.40051 47.4021 9.02261 47.1381C9.0028 47.1853 8.98294 47.1903 8.88852 47.1718C8.79411 47.1533 8.71088 47.1373 8.74825 47.2229C8.3445 47.1291 8.01255 46.8588 7.66444 46.5873C7.32505 46.3294 7.04665 46.1671 7.11659 46.4663C6.8432 46.3449 6.67524 46.1179 6.51366 46.0212L6.54718 46.0075C6.10983 45.864 6.02407 45.817 5.69103 45.6684C5.58547 45.6685 5.83797 45.9588 5.47755 45.7643C5.46254 45.6836 5.36066 45.6564 5.23765 45.6081C5.29355 45.6205 5.28481 45.5857 5.03748 45.442C5.04993 45.4705 5.03628 45.4792 5.02263 45.4879C5.01021 45.4805 4.99653 45.4681 4.98782 45.4544C4.79899 45.4174 4.88103 45.4707 5.0053 45.524C5.02022 45.5413 5.05379 45.5699 5.11719 45.612C5.04883 45.5711 4.98171 45.5352 4.92206 45.5079C4.88356 45.5018 4.85873 45.508 4.8339 45.5143C4.90739 45.6806 5.00197 45.8258 4.8478 45.6956C5.00835 45.9562 5.18747 46.1646 5.39394 46.3978C5.59544 46.6322 5.82056 46.8766 6.0159 47.1496C5.89164 47.0963 5.68766 46.873 5.5558 46.7056C5.63171 46.8185 5.71757 46.95 5.80844 47.1014C5.58343 46.9415 5.55838 46.7788 5.45886 46.656C5.38814 46.7107 5.60593 47.052 5.88096 47.4739C6.02406 47.6861 6.22807 47.9305 6.40222 48.1401C6.5714 48.351 6.66972 48.5111 6.69727 48.6837L6.82787 48.8251L6.86518 48.8685C6.90741 48.8685 7.00446 49.0025 7.03561 49.0844C6.97488 49.1788 6.85065 49.1467 6.90805 49.3541C6.87104 49.5429 7.07388 49.8456 7.15733 50.0306C7.14973 49.9163 7.1982 49.9411 7.24048 49.9833C7.26173 50.0888 7.1898 50.1597 7.23957 50.2317L7.13032 50.2591C7.22711 50.2031 7.28341 50.511 7.32941 50.547C7.25125 50.6142 7.24351 50.3943 7.17021 50.3758C7.2254 50.7843 7.20525 50.5782 7.24058 50.9917C7.32781 51.2127 7.34609 50.9494 7.44558 51.0511C7.4744 51.2497 7.55167 51.4521 7.46753 51.6844L7.57176 51.616C7.62817 52.0084 7.5875 52.2456 7.44748 52.4867C7.53416 53.2305 7.57947 53.6838 7.65926 53.9172C7.73906 54.1505 7.85458 54.169 7.9675 54.0931C8.20698 53.9326 8.42972 53.3275 8.42972 53.3275C8.66986 52.7285 8.71391 52.2317 8.68714 51.7052C8.66036 51.1786 8.56896 50.6261 8.39533 49.8724Z" fill="#A2D4FD"/>
</svg>
